<svg width="1499.9999999999998" height="1495.9999999999998" xmlns="http://www.w3.org/2000/svg">

 <g>
  <title>background</title>
  <rect fill="none" id="canvas_background" height="1498" width="1502" y="-1" x="-1"/>
 </g>
 <g>
  <title>Layer 1</title>
  <ellipse stroke="#000" ry="700" rx="700" id="svg_2" cy="750.439011" cx="752.439034" stroke-width="0" fill="#fff"/>
  <g id="svg_1" text-anchor="none" font-size="none" font-weight="none" font-family="none" stroke-dashoffset="0" stroke-miterlimit="10" fill-rule="nonzero" fill="none">
   <g stroke="null" id="Group 1">
    <g stroke="null" fill="#762430" id="Group 1">
     <path stroke="null" id="Path 1" d="m1300.364734,1000.909282l-5.00902,4.03707c-23.83127,8.24509 -93.70032,15.25251 -209.60717,21.02226c-116.7093,5.77235 -254.17274,8.84595 -412.39033,9.22078c-151.00151,-0.04639 -271.79118,-2.79261 -362.36901,-8.23865c-29.02231,-1.76262 -52.93213,-3.74587 -71.72944,-5.94975l-23.70338,-3.44169c-13.02661,-2.39483 -19.62407,-4.95093 -19.7924,-7.66828c3.8805,-8.37443 57.74582,-15.75391 161.59597,-22.13846c103.85018,-6.38448 234.00535,-10.31811 390.46551,-11.8009c156.46361,-1.06153 286.6654,0.75508 390.60536,5.44982c103.93992,4.69501 157.9179,11.1976 161.93393,19.50779"/>
    </g>
    <g stroke="null" fill="#762430" id="Group 1">
     <path stroke="null" id="Path 1" d="m659.042854,711.131782c-1.22376,0.0094 -2.44708,0.07978 -3.66534,0.21103l-385.15936,41.52517c-11.24806,1.21274 -21.31505,7.52684 -27.3037,17.12534c-5.98865,9.5979 -7.23461,21.41573 -3.3794,32.05207l3.0218,8.33668l-0.00037,0.00009c8.10865,22.64046 22.39814,48.69319 42.86845,78.15818c0.2385,0.34329 0.48302,0.68275 0.73311,1.01766l62.69356,83.98716c0.07869,0.10544 0.1583,0.2109 0.23811,0.31557c8.11921,10.63675 17.27349,19.92686 27.46285,27.87033c0.20407,0.15916 0.40878,0.31533 0.61621,0.47008c15.68934,11.70924 34.01903,19.42986 54.98909,23.16184l-0.00727,0.0002c1.17187,0.29062 2.39702,0.55171 3.67543,0.78328l-0.00006,0c11.03566,1.99871 46.00135,4.40933 104.89706,7.23184c0.10013,0.0048 0.19673,0.00899 0.29693,0.01299c35.50219,1.4144 71.02091,1.98493 106.55618,1.7116c4.13783,-0.03186 8.26354,-0.07493 12.37711,-0.12921c0.08167,-0.00122 0.17202,-0.0026 0.25364,-0.00432l267.10946,-5.3682l66.76695,-0.47965l0.1329,-0.00119c25.07759,-0.27087 49.75414,-3.26226 74.02964,-8.97417c0.32617,-0.07663 0.65005,-0.15742 0.97396,-0.24311c28.66207,-7.57427 51.19103,-21.09173 67.58686,-40.55238l-0.0143,0.0001c5.22483,-5.81271 10.79964,-13.34972 16.72443,-22.61104c0.19739,-0.30851 0.39078,-0.62074 0.57883,-0.93521l36.91838,-61.68876l-0.01491,0.00008c10.18474,-14.62385 17.59742,-24.10392 22.23802,-28.44023c12.68489,-11.85289 15.37208,-30.95343 6.45006,-45.84614l-26.68617,-44.54485c-6.03821,-10.07855 -16.52141,-16.6725 -28.22075,-17.75014l-502.07528,-46.24859c-1.21817,-0.11224 -2.44037,-0.16347 -3.66211,-0.15412l0,0.00002z"/>
    </g>
    <g stroke="null" id="Group 1">
     <g stroke="null" fill="#f47e50" id="Group 1">
      <path stroke="null" id="Path 1" d="m274.166704,789.492352l3.02185,8.33689c7.0009,19.60583 19.83043,42.83704 38.4886,69.69365l62.69362,83.98716c6.19656,8.11791 13.13988,15.17441 20.82995,21.1695c11.39624,8.50518 25.05041,14.06602 40.9625,16.68254c4.73035,1.77218 38.83806,4.17945 102.32312,7.2218c38.97433,1.55269 77.96779,2.07145 116.98037,1.55627l267.34134,-5.37303l67.01059,-0.48136c22.36192,-0.24132 44.35867,-2.90694 65.99024,-7.99686c21.47062,-5.67378 37.92014,-15.43998 49.34857,-29.29862c3.93728,-4.332 8.3805,-10.36601 13.32967,-18.10203l37.65587,-62.92145c11.98596,-17.26274 21.30079,-28.99814 27.94447,-35.2062l-26.68633,-44.54505l-502.07515,-46.24838l-385.1593,41.52517"/>
     </g>
     <g stroke="null" fill="#ca5639" id="Group 1">
      <path stroke="null" id="Path 1" d="m659.326004,747.967182l-385.1593,41.52517l3.02185,8.33689c7.0009,19.60583 19.83043,42.83704 38.4886,69.69365l3.61556,4.8435c20.2169,-10.19886 43.16633,-15.39705 68.8483,-15.59455c6.61267,-0.0508 13.40649,0.22982 20.38144,0.84186c12.76638,1.06939 30.00548,5.35532 51.7173,12.85781c7.47473,2.10203 37.85531,15.35841 91.14176,39.76911c9.40243,3.91154 18.9546,7.42371 28.65651,10.53649c24.76155,7.8434 50.11246,11.9509 76.05275,12.32249c0.79784,-0.0002 1.59397,-0.00335 2.38839,-0.00944c25.73912,-0.19791 49.66114,-3.51922 71.76606,-9.96393c14.06812,-3.87821 27.91932,-8.45044 41.55361,-13.7167c51.59416,-21.60792 80.95108,-33.28229 88.07076,-35.02313c16.60359,-5.60859 33.5958,-9.1781 50.97663,-10.70854c3.94006,-0.28455 7.83263,-0.44163 11.67773,-0.47126c13.54759,-0.1042 26.50424,1.37416 38.86996,4.43507c8.08229,1.88444 16.08448,4.12912 24.00657,6.73403c38.74696,13.99853 61.95324,21.93503 69.61885,23.8095c15.52654,4.62827 31.33506,7.75187 47.42554,9.37077c6.7103,0.60712 13.36751,0.88526 19.97164,0.83442c5.93278,-0.04564 11.82271,-0.35681 17.66979,-0.93351l20.0567,-33.49007c11.98596,-17.26274 21.30079,-28.99814 27.94447,-35.2062l-26.68633,-44.54505l-502.07514,-46.24838z"/>
     </g>
    </g>
    <g stroke="null" fill="#ca5639" id="Group 1">
     <path stroke="null" id="Path 1" d="m846.395284,1075.806302l-0.00014,0.0005l-0.00024,0.00049l0.00039,-0.00099"/>
    </g>
    <g stroke="null" fill="#762430" id="Group 1">
     <path stroke="null" id="Path 1" d="m208.175634,737.595062l9.3724,-18.20081c57.50892,-76.46578 135.87519,-140.3362 235.09879,-191.61125l19.92471,-9.40854l45.07593,11.00232l105.4285,-70.69401l97.60666,43.17247c42.35844,-33.72477 88.71548,-67.12118 139.07115,-100.18922c102.97933,42.96864 187.14323,91.55024 252.49169,145.74479c81.82122,67.98601 143.68902,132.51594 185.60341,193.58981l-175.74653,59.89834l-201.96124,-55.05268l-283.39345,52.51589l-283.53623,-51.84935l-145.03578,-8.91775"/>
    </g>
    <g stroke="null" fill="#f1bd74" id="Group 1">
     <path stroke="null" id="Path 1" d="m575.585054,573.176522l-37.92751,-22.9977c8.03611,-2.93026 14.93257,-6.28751 20.6894,-10.07175l9.03457,-6.11192l30.14209,-22.05849l11.15603,-7.25632c7.06837,-4.36666 13.81491,-6.9693 20.23962,-7.80791c7.91556,-1.06149 17.76799,0.97396 29.55728,6.10637c8.85738,3.41456 26.74016,12.87828 53.64832,28.39117c-13.12285,13.07179 -37.98639,42.33057 -74.5906,87.77634l-61.94919,-45.96978"/>
    </g>
    <g stroke="null" fill="#762430" id="Group 1">
     <path stroke="null" id="Path 1" d="m938.773964,674.347082c-2.72567,0.02094 -5.4537,0.08655 -8.18408,0.19683c-0.40381,0.01634 -0.8066,0.039 -1.20978,0.06846c-18.59118,1.35456 -38.45803,5.17151 -59.60055,11.45084l-0.00489,0.0013c-9.58567,2.84728 -19.09833,5.99744 -28.53797,9.45046c-0.32828,0.12008 -0.65549,0.2449 -0.98017,0.37409c-51.41568,20.45858 -80.42288,31.73255 -87.0216,33.82191l-0.01051,0.00005c-0.4948,0.13424 -0.9868,0.27837 -1.4758,0.43252c-21.48261,6.77918 -34.48432,10.58991 -39.00515,11.4322l-0.01014,-0.00008c-0.98586,0.15304 -1.965,0.34539 -2.93568,0.57649c-22.91752,5.45851 -45.93885,8.27666 -69.06398,8.45445c-4.45896,0.03443 -8.92346,-0.02923 -13.39351,-0.19098c-0.18188,-0.00668 -0.36784,-0.01197 -0.54975,-0.01585c-15.39877,-0.33083 -33.92982,-3.67059 -55.59317,-10.01928l-0.00377,0.00009c-19.18435,-5.78519 -51.53355,-17.4938 -97.04761,-35.12583c-0.2447,-0.09477 -0.49148,-0.18749 -0.73809,-0.27707c-14.24524,-5.17635 -28.54727,-9.7234 -42.9061,-13.64114l-0.00012,0c-15.14665,-4.13277 -30.4016,-7.11747 -45.76484,-8.95411c-0.65778,-0.07857 -1.31667,-0.13985 -1.97764,-0.18342l-20.38996,-1.34624c-0.917,-0.06053 -1.83574,-0.08728 -2.75444,-0.0802c-0.39825,0.00302 -0.79644,0.01245 -1.19455,0.0282l-20.56974,0.81477c-0.77863,0.03089 -1.5561,0.08586 -2.33126,0.16523c-24.51562,2.50971 -48.39748,8.15296 -71.64557,16.92973l-0.12479,0.04744c-30.4663,11.6259 -52.68084,24.07972 -66.64363,37.36146c-0.76669,0.72939 -1.50247,1.49135 -2.20484,2.28315c-2.70876,3.05366 -5.11013,6.16858 -7.2041,9.34478c-11.8021,17.90105 -14.05905,36.04463 -6.77086,54.43073l-0.00476,0.00007c3.53143,10.67118 7.90175,19.6692 13.11097,26.99404l-0.00006,0c10.34114,14.54128 23.53355,22.86335 39.57721,24.96621c1.70883,0.22408 3.43074,0.32968 5.15364,0.31646c0.16092,-0.00121 0.32194,-0.00342 0.48286,-0.00673c8.53443,-0.17581 16.88485,-1.93491 25.05126,-5.27729c2.29769,-0.94037 4.56952,-2.00351 6.81548,-3.18943c0.91441,-0.48297 1.80849,-1.00352 2.67984,-1.56041c12.54658,-8.01842 20.70933,-12.92648 24.48822,-14.72418l-0.00598,0.00003c0.28802,-0.0989 0.57463,-0.20144 0.86016,-0.30741c22.7701,-8.45679 39.00092,-14.06255 48.69246,-16.81727c0.35636,-0.10139 0.7127,-0.20829 1.06587,-0.32008c15.97573,-5.05896 31.99248,-7.65015 48.05026,-7.77357c0.84154,-0.00652 1.68304,-0.0063 2.52453,0.00066l-0.00697,0.00011l7.84974,0.62953l19.08807,3.10065l19.85203,4.63056l-0.00739,-0.00001c20.50174,5.49187 54.63776,16.96122 102.40806,34.40806c0.23959,0.08742 0.481,0.17279 0.72239,0.25556c15.07735,5.15928 30.24352,9.67472 45.49851,13.54632l-0.00006,0c16.04079,4.07088 32.24805,6.94907 48.62179,8.63457c0.64823,0.06662 1.29817,0.11638 1.94905,0.14926l21.99542,1.10871c0.72386,0.03652 1.44819,0.05204 2.17263,0.04646c0.58214,-0.00445 1.16417,-0.02262 1.74571,-0.0542l16.78437,-0.91281c1.26976,-0.06909 2.53522,-0.20282 3.79135,-0.40064l16.50066,-2.59829c0.63071,-0.09924 1.25857,-0.21486 1.88321,-0.34618c12.57595,-2.64558 24.99635,-6.1641 37.2612,-10.55557l0.04319,-0.0155c16.6583,-5.98781 43.57242,-17.28171 80.74237,-33.88172l-0.01136,0.00008l29.87522,-10.97967l-0.0116,-0.00002c9.28721,-2.75387 15.3906,-4.31674 18.31016,-4.6886l-0.01187,-0.00003c0.55238,-0.049 1.10401,-0.11053 1.65363,-0.18402c3.77069,-0.50496 7.56381,-0.77213 11.37935,-0.80152c1.16802,-0.00894 2.33904,0.00435 3.51306,0.03986c0.47233,0.01429 0.94539,0.01959 1.41811,0.01588c0.3278,-0.00255 0.65576,-0.0092 0.98335,-0.02036c0.10494,-0.00361 0.22419,-0.00591 0.35773,-0.00692c7.40007,-0.05689 21.1967,2.49596 41.38988,7.65855l-0.01248,0.00015l135.08593,40.6122c0.46954,0.14116 0.94174,0.27319 1.41656,0.39579l21.09505,5.44837c0.31561,0.08144 0.63217,0.15881 0.94971,0.232c10.70828,2.46949 22.3053,4.1276 34.79104,4.97434l-0.01442,0.0001c0.9618,0.10508 1.96769,0.18939 3.01766,0.25292l-0.0001,0.0001c2.39435,0.14508 5.42385,0.20352 9.0885,0.17532c4.66981,-0.03602 10.78861,-0.21048 18.35641,-0.52339c0.43437,-0.01808 0.86875,-0.04357 1.30234,-0.07658c18.85254,-1.43886 37.51219,-4.36202 55.97896,-8.76947l-0.01174,0.00017c28.55103,-6.47901 49.11511,-13.07261 61.69223,-19.78081c0.26779,-0.14268 0.53367,-0.28882 0.79794,-0.438c11.29552,-6.38197 20.36478,-13.75789 27.20777,-22.12776l0,-0.0001c13.26556,-16.22582 17.90415,-34.41738 13.91577,-54.57468c-0.63435,-3.20685 -1.68596,-6.31671 -3.12794,-9.2506c-7.42196,-15.09856 -20.70795,-23.96958 -39.85797,-26.61305c-2.06512,-0.28503 -4.20746,-0.49265 -6.42702,-0.62285c-0.82557,-0.04846 -1.6522,-0.06958 -2.4792,-0.06322c-0.05343,0.00031 -0.10667,0.00092 -0.1602,0.00149c-4.25848,0.05086 -8.56008,0.4425 -12.90482,1.17493c-0.75354,0.12702 -1.50262,0.27707 -2.24683,0.44982c-10.44772,2.42632 -17.23964,3.83106 -20.37575,4.21421l-0.01541,0.00017c-0.93492,0.02702 -1.86892,0.08912 -2.79969,0.18623c-10.5068,1.09561 -21.05324,1.6841 -31.6393,1.76545c-0.34492,0.00268 -0.67404,0.00478 -0.98736,0.00629c-0.03672,0.0002 -0.07339,0.00051 -0.11006,0.00069c-0.32195,0.00252 -0.64354,0.00904 -0.96573,0.01985c-1.69324,0.05676 -3.41349,0.09185 -5.16075,0.10525c-17.52713,0.13492 -37.51456,-1.89856 -59.9623,-6.10043c-0.16012,-0.03001 -0.31822,-0.0585 -0.47864,-0.08653l-1.63235,-0.28358l-0.01441,0.00008c-5.53139,-1.15149 -12.59149,-3.13601 -21.18029,-5.95358l-0.01421,0.00024c-52.8339,-19.72066 -86.49242,-31.20071 -100.97557,-34.44017l-0.01307,0.00012c-23.05977,-6.32704 -46.24728,-9.40092 -69.56253,-9.22166l-0.00004,0z"/>
    </g>
    <g stroke="null" fill="#f47e50" id="Group 1">
     <path stroke="null" id="Path 1" d="m1123.460104,760.737202l2.2959,0.39893c27.39437,5.12769 51.8164,7.33216 73.26608,6.6134c12.15579,-0.05736 24.26631,-0.71512 36.33157,-1.97327c3.42287,0.05962 12.68213,-1.6635 27.77779,-5.16935c2.43259,-0.41 4.80882,-0.62887 7.1287,-0.6566c8.05929,0.47251 13.01737,2.59755 14.87427,6.37512c2.84107,14.35949 -4.76271,26.63792 -22.81134,36.8353c-9.62117,5.13161 -27.07368,10.5662 -52.35753,16.30378c-16.67237,4.00124 -33.51579,6.65108 -50.53028,7.94952c-14.13366,0.58436 -22.60347,0.65487 -25.40942,0.21152c-10.87472,-0.69251 -20.831,-2.08086 -29.86884,-4.16505l-21.09515,-5.44848l-135.90073,-40.85734c-24.70359,-6.3408 -42.36002,-9.33102 -52.96931,-8.97064c-7.04807,-0.21332 -14.04627,0.14527 -20.99462,1.07577c-4.90498,0.42187 -13.81556,2.56028 -26.73176,6.41523l-32.16435,11.82111c-36.94319,16.5143 -63.3919,27.6388 -79.34614,33.37349c-10.6587,3.81634 -21.44094,6.8716 -32.34672,9.16579l-16.50067,2.59849l-16.78453,0.91281l-21.99555,-1.10882c-14.55854,-1.49851 -28.97364,-4.05872 -43.24532,-7.68065c-14.27172,-3.62199 -28.46711,-7.84873 -42.58618,-12.6802c-49.29152,-18.00238 -84.70057,-29.86298 -106.22715,-35.58181l-21.60732,-5.04001l-21.84549,-3.54848l-10.63357,-0.85271c-21.34684,-0.33084 -42.54463,2.83634 -63.59338,9.50154c-10.63625,3.02326 -27.7999,8.93433 -51.49096,17.73322c-4.01902,1.12247 -14.84232,7.31651 -32.46991,18.58212c-5.03188,2.65693 -10.08298,4.0376 -15.1533,4.14199c-9.42966,-1.23606 -16.89535,-10.50287 -22.39706,-27.80042c-3.52973,-8.19364 -1.25183,-16.848 6.83372,-25.96309c10.33546,-9.83144 28.39767,-19.66773 54.18663,-29.50887c20.20723,-7.62866 40.95194,-12.53233 62.23412,-14.71101l20.56979,-0.81482l20.38984,1.34623c13.53335,1.61791 26.98458,4.25071 40.3537,7.89839c13.36913,3.64775 26.6939,7.88452 39.97428,12.71031c46.40676,17.97786 79.66119,29.99772 99.76328,36.05959c24.95813,7.33349 46.82581,11.20185 65.60301,11.60507c31.03111,1.12277 61.86003,-1.96322 92.48676,-9.25795c5.26068,-0.77248 20.10861,-5.0142 44.5438,-12.72516c4.4702,-1.06499 34.83115,-12.78888 91.08287,-35.17168c8.71469,-3.18787 17.49469,-6.09543 26.34002,-8.72267c18.54873,-5.50888 35.76914,-8.84231 51.66123,-10.00029c22.50536,-0.90917 44.92707,1.75084 67.26511,7.98004c11.49268,2.27884 43.97363,13.4011 97.44287,33.36678c10.56308,3.4897 19.44683,5.96764 26.65125,7.43382"/>
    </g>
    <g stroke="null" fill="#fedba3" id="Group 1">
     <path stroke="null" id="Path 1" d="m282.974484,686.435822l6.88065,-7.026c50.82269,-51.2777 110.48673,-92.40411 178.9921,-123.37922c-23.4282,28.03675 -35.92515,57.89112 -37.49085,89.56313c18.19173,-29.71675 40.33724,-59.01161 66.43653,-87.88457c28.06929,7.87844 53.57118,22.34706 76.50566,43.40584c-26.65069,18.26749 -43.78453,45.60399 -51.40152,82.00951c19.7393,-24.82382 43.22838,-48.48122 70.46723,-70.97219c18.71188,13.34017 34.23822,29.16158 46.57903,47.46424c21.25995,-30.80671 43.23031,-59.62894 65.91109,-86.46669c40.62268,20.33701 74.99182,44.81946 103.10742,73.44733c-16.91215,-37.0331 -46.21766,-67.44156 -87.91654,-91.22538c29.78861,-33.16327 60.18501,-61.7876 91.1892,-85.87301c47.50757,32.65814 83.98362,69.87957 109.42816,111.66428c-10.95366,-47.82225 -37.73323,-90.16275 -80.33872,-127.02152c14.15868,-12.59112 26.57848,-18.28443 37.25941,-17.07993c3.98136,0.29116 7.02827,0.8026 9.14074,1.53431c42.44794,23.84355 65.31438,36.96659 68.59931,39.36911c21.57752,13.8152 37.01425,26.41711 46.31019,37.80572c27.29444,31.38677 48.6082,76.37955 63.94128,134.97835c2.46202,-13.32381 2.11341,-30.40493 -1.04583,-51.24335c-4.39372,-21.79861 -11.77335,-40.58121 -22.13889,-56.34781l2.53147,-8.94259c99.18883,72.13601 167.25042,138.51549 204.18478,199.13845c-30.81113,8.1883 -59.70207,9.73655 -86.6728,4.64476c-10.54719,-1.48895 -25.21509,-5.19198 -44.00369,-11.1091c-64.43621,-24.88358 -101.55913,-38.02079 -111.36875,-39.41165c-25.28881,-6.36648 -50.88203,-8.94957 -76.77964,-7.74927c-17.1859,0.84899 -34.03086,3.67165 -50.53488,8.46797l-151.55985,56.08329l-12.67696,3.618c-25.71419,6.39362 -51.84637,8.73019 -78.39653,7.00972c-29.56435,-2.69064 -52.39728,-6.85635 -68.49878,-12.49714c-9.55933,-2.02932 -46.86581,-16.31894 -111.91945,-42.86886c-19.50705,-7.14202 -37.13093,-12.27078 -52.87163,-15.38627c-40.91966,-8.58029 -81.53597,-7.82011 -121.84893,2.28055"/>
    </g>
   </g>
   <g stroke="null" fill="#762430" id="Group 1">
    <path stroke="null" id="Path 1" d="m1300.364734,1000.909282l-5.00902,4.03707c-23.83127,8.24509 -93.70032,15.25251 -209.60717,21.02226c-116.7093,5.77235 -254.17274,8.84595 -412.39033,9.22078c-151.00151,-0.04639 -271.79118,-2.79261 -362.36901,-8.23865c-29.02231,-1.76262 -52.93213,-3.74587 -71.72944,-5.94975l-23.70338,-3.44169c-13.02661,-2.39483 -19.62407,-4.95093 -19.7924,-7.66828c3.8805,-8.37443 57.74582,-15.75391 161.59597,-22.13846c103.85018,-6.38448 234.00535,-10.31811 390.46551,-11.8009c156.46361,-1.06153 286.6654,0.75508 390.60536,5.44982c103.93992,4.69501 157.9179,11.1976 161.93393,19.50779"/>
   </g>
   <path stroke="null" fill="#762430" id="Path 1" d="m1300.364734,1000.909282l-5.00902,4.03707c-23.83127,8.24509 -93.70032,15.25251 -209.60717,21.02226c-116.7093,5.77235 -254.17274,8.84595 -412.39033,9.22078c-151.00151,-0.04639 -271.79118,-2.79261 -362.36901,-8.23865c-29.02231,-1.76262 -52.93213,-3.74587 -71.72944,-5.94975l-23.70338,-3.44169c-13.02661,-2.39483 -19.62407,-4.95093 -19.7924,-7.66828c3.8805,-8.37443 57.74582,-15.75391 161.59597,-22.13846c103.85018,-6.38448 234.00535,-10.31811 390.46551,-11.8009c156.46361,-1.06153 286.6654,0.75508 390.60536,5.44982c103.93992,4.69501 157.9179,11.1976 161.93393,19.50779"/>
   <g stroke="null" fill="#762430" id="Group 1">
    <path stroke="null" id="Path 1" d="m659.042854,711.131782c-1.22376,0.0094 -2.44708,0.07978 -3.66534,0.21103l-385.15936,41.52517c-11.24806,1.21274 -21.31505,7.52684 -27.3037,17.12534c-5.98865,9.5979 -7.23461,21.41573 -3.3794,32.05207l3.0218,8.33668l-0.00037,0.00009c8.10865,22.64046 22.39814,48.69319 42.86845,78.15818c0.2385,0.34329 0.48302,0.68275 0.73311,1.01766l62.69356,83.98716c0.07869,0.10544 0.1583,0.2109 0.23811,0.31557c8.11921,10.63675 17.27349,19.92686 27.46285,27.87033c0.20407,0.15916 0.40878,0.31533 0.61621,0.47008c15.68934,11.70924 34.01903,19.42986 54.98909,23.16184l-0.00727,0.0002c1.17187,0.29062 2.39702,0.55171 3.67543,0.78328l-0.00006,0c11.03566,1.99871 46.00135,4.40933 104.89706,7.23184c0.10013,0.0048 0.19673,0.00899 0.29693,0.01299c35.50219,1.4144 71.02091,1.98493 106.55618,1.7116c4.13783,-0.03186 8.26354,-0.07493 12.37711,-0.12921c0.08167,-0.00122 0.17202,-0.0026 0.25364,-0.00432l267.10946,-5.3682l66.76695,-0.47965l0.1329,-0.00119c25.07759,-0.27087 49.75414,-3.26226 74.02964,-8.97417c0.32617,-0.07663 0.65005,-0.15742 0.97396,-0.24311c28.66207,-7.57427 51.19103,-21.09173 67.58686,-40.55238l-0.0143,0.0001c5.22483,-5.81271 10.79964,-13.34972 16.72443,-22.61104c0.19739,-0.30851 0.39078,-0.62074 0.57883,-0.93521l36.91838,-61.68876l-0.01491,0.00008c10.18474,-14.62385 17.59742,-24.10392 22.23802,-28.44023c12.68489,-11.85289 15.37208,-30.95343 6.45006,-45.84614l-26.68617,-44.54485c-6.03821,-10.07855 -16.52141,-16.6725 -28.22075,-17.75014l-502.07528,-46.24859c-1.21817,-0.11224 -2.44037,-0.16347 -3.66211,-0.15412l0,0.00002z"/>
   </g>
   <path stroke="null" fill="#762430" id="Path 1" d="m659.042854,711.131782c-1.22376,0.0094 -2.44708,0.07978 -3.66534,0.21103l-385.15936,41.52517c-11.24806,1.21274 -21.31505,7.52684 -27.3037,17.12534c-5.98865,9.5979 -7.23461,21.41573 -3.3794,32.05207l3.0218,8.33668l-0.00037,0.00009c8.10865,22.64046 22.39814,48.69319 42.86845,78.15818c0.2385,0.34329 0.48302,0.68275 0.73311,1.01766l62.69356,83.98716c0.07869,0.10544 0.1583,0.2109 0.23811,0.31557c8.11921,10.63675 17.27349,19.92686 27.46285,27.87033c0.20407,0.15916 0.40878,0.31533 0.61621,0.47008c15.68934,11.70924 34.01903,19.42986 54.98909,23.16184l-0.00727,0.0002c1.17187,0.29062 2.39702,0.55171 3.67543,0.78328l-0.00006,0c11.03566,1.99871 46.00135,4.40933 104.89706,7.23184c0.10013,0.0048 0.19673,0.00899 0.29693,0.01299c35.50219,1.4144 71.02091,1.98493 106.55618,1.7116c4.13783,-0.03186 8.26354,-0.07493 12.37711,-0.12921c0.08167,-0.00122 0.17202,-0.0026 0.25364,-0.00432l267.10946,-5.3682l66.76695,-0.47965l0.1329,-0.00119c25.07759,-0.27087 49.75414,-3.26226 74.02964,-8.97417c0.32617,-0.07663 0.65005,-0.15742 0.97396,-0.24311c28.66207,-7.57427 51.19103,-21.09173 67.58686,-40.55238l-0.0143,0.0001c5.22483,-5.81271 10.79964,-13.34972 16.72443,-22.61104c0.19739,-0.30851 0.39078,-0.62074 0.57883,-0.93521l36.91838,-61.68876l-0.01491,0.00008c10.18474,-14.62385 17.59742,-24.10392 22.23802,-28.44023c12.68489,-11.85289 15.37208,-30.95343 6.45006,-45.84614l-26.68617,-44.54485c-6.03821,-10.07855 -16.52141,-16.6725 -28.22075,-17.75014l-502.07528,-46.24859c-1.21817,-0.11224 -2.44037,-0.16347 -3.66211,-0.15412l0,0.00002z"/>
   <g stroke="null" id="Group 1">
    <g stroke="null" fill="#f47e50" id="Group 1">
     <path stroke="null" id="Path 1" d="m274.166704,789.492352l3.02185,8.33689c7.0009,19.60583 19.83043,42.83704 38.4886,69.69365l62.69362,83.98716c6.19656,8.11791 13.13988,15.17441 20.82995,21.1695c11.39624,8.50518 25.05041,14.06602 40.9625,16.68254c4.73035,1.77218 38.83806,4.17945 102.32312,7.2218c38.97433,1.55269 77.96779,2.07145 116.98037,1.55627l267.34134,-5.37303l67.01059,-0.48136c22.36192,-0.24132 44.35867,-2.90694 65.99024,-7.99686c21.47062,-5.67378 37.92014,-15.43998 49.34857,-29.29862c3.93728,-4.332 8.3805,-10.36601 13.32967,-18.10203l37.65587,-62.92145c11.98596,-17.26274 21.30079,-28.99814 27.94447,-35.2062l-26.68633,-44.54505l-502.07515,-46.24838l-385.1593,41.52517"/>
    </g>
    <g stroke="null" fill="#ca5639" id="Group 1">
     <path stroke="null" id="Path 1" d="m659.326004,747.967182l-385.1593,41.52517l3.02185,8.33689c7.0009,19.60583 19.83043,42.83704 38.4886,69.69365l3.61556,4.8435c20.2169,-10.19886 43.16633,-15.39705 68.8483,-15.59455c6.61267,-0.0508 13.40649,0.22982 20.38144,0.84186c12.76638,1.06939 30.00548,5.35532 51.7173,12.85781c7.47473,2.10203 37.85531,15.35841 91.14176,39.76911c9.40243,3.91154 18.9546,7.42371 28.65651,10.53649c24.76155,7.8434 50.11246,11.9509 76.05275,12.32249c0.79784,-0.0002 1.59397,-0.00335 2.38839,-0.00944c25.73912,-0.19791 49.66114,-3.51922 71.76606,-9.96393c14.06812,-3.87821 27.91932,-8.45044 41.55361,-13.7167c51.59416,-21.60792 80.95108,-33.28229 88.07076,-35.02313c16.60359,-5.60859 33.5958,-9.1781 50.97663,-10.70854c3.94006,-0.28455 7.83263,-0.44163 11.67773,-0.47126c13.54759,-0.1042 26.50424,1.37416 38.86996,4.43507c8.08229,1.88444 16.08448,4.12912 24.00657,6.73403c38.74696,13.99853 61.95324,21.93503 69.61885,23.8095c15.52654,4.62827 31.33506,7.75187 47.42554,9.37077c6.7103,0.60712 13.36751,0.88526 19.97164,0.83442c5.93278,-0.04564 11.82271,-0.35681 17.66979,-0.93351l20.0567,-33.49007c11.98596,-17.26274 21.30079,-28.99814 27.94447,-35.2062l-26.68633,-44.54505l-502.07514,-46.24838z"/>
    </g>
   </g>
   <g stroke="null" fill="#f47e50" id="Group 1">
    <path stroke="null" id="Path 1" d="m274.166704,789.492352l3.02185,8.33689c7.0009,19.60583 19.83043,42.83704 38.4886,69.69365l62.69362,83.98716c6.19656,8.11791 13.13988,15.17441 20.82995,21.1695c11.39624,8.50518 25.05041,14.06602 40.9625,16.68254c4.73035,1.77218 38.83806,4.17945 102.32312,7.2218c38.97433,1.55269 77.96779,2.07145 116.98037,1.55627l267.34134,-5.37303l67.01059,-0.48136c22.36192,-0.24132 44.35867,-2.90694 65.99024,-7.99686c21.47062,-5.67378 37.92014,-15.43998 49.34857,-29.29862c3.93728,-4.332 8.3805,-10.36601 13.32967,-18.10203l37.65587,-62.92145c11.98596,-17.26274 21.30079,-28.99814 27.94447,-35.2062l-26.68633,-44.54505l-502.07515,-46.24838l-385.1593,41.52517"/>
   </g>
   <path stroke="null" fill="#f47e50" id="Path 1" d="m274.166704,789.492352l3.02185,8.33689c7.0009,19.60583 19.83043,42.83704 38.4886,69.69365l62.69362,83.98716c6.19656,8.11791 13.13988,15.17441 20.82995,21.1695c11.39624,8.50518 25.05041,14.06602 40.9625,16.68254c4.73035,1.77218 38.83806,4.17945 102.32312,7.2218c38.97433,1.55269 77.96779,2.07145 116.98037,1.55627l267.34134,-5.37303l67.01059,-0.48136c22.36192,-0.24132 44.35867,-2.90694 65.99024,-7.99686c21.47062,-5.67378 37.92014,-15.43998 49.34857,-29.29862c3.93728,-4.332 8.3805,-10.36601 13.32967,-18.10203l37.65587,-62.92145c11.98596,-17.26274 21.30079,-28.99814 27.94447,-35.2062l-26.68633,-44.54505l-502.07515,-46.24838l-385.1593,41.52517"/>
   <g stroke="null" fill="#ca5639" id="Group 1">
    <path stroke="null" id="Path 1" d="m659.326004,747.967182l-385.1593,41.52517l3.02185,8.33689c7.0009,19.60583 19.83043,42.83704 38.4886,69.69365l3.61556,4.8435c20.2169,-10.19886 43.16633,-15.39705 68.8483,-15.59455c6.61267,-0.0508 13.40649,0.22982 20.38144,0.84186c12.76638,1.06939 30.00548,5.35532 51.7173,12.85781c7.47473,2.10203 37.85531,15.35841 91.14176,39.76911c9.40243,3.91154 18.9546,7.42371 28.65651,10.53649c24.76155,7.8434 50.11246,11.9509 76.05275,12.32249c0.79784,-0.0002 1.59397,-0.00335 2.38839,-0.00944c25.73912,-0.19791 49.66114,-3.51922 71.76606,-9.96393c14.06812,-3.87821 27.91932,-8.45044 41.55361,-13.7167c51.59416,-21.60792 80.95108,-33.28229 88.07076,-35.02313c16.60359,-5.60859 33.5958,-9.1781 50.97663,-10.70854c3.94006,-0.28455 7.83263,-0.44163 11.67773,-0.47126c13.54759,-0.1042 26.50424,1.37416 38.86996,4.43507c8.08229,1.88444 16.08448,4.12912 24.00657,6.73403c38.74696,13.99853 61.95324,21.93503 69.61885,23.8095c15.52654,4.62827 31.33506,7.75187 47.42554,9.37077c6.7103,0.60712 13.36751,0.88526 19.97164,0.83442c5.93278,-0.04564 11.82271,-0.35681 17.66979,-0.93351l20.0567,-33.49007c11.98596,-17.26274 21.30079,-28.99814 27.94447,-35.2062l-26.68633,-44.54505l-502.07514,-46.24838z"/>
   </g>
   <path stroke="null" fill="#ca5639" id="Path 1" d="m659.326004,747.967182l-385.1593,41.52517l3.02185,8.33689c7.0009,19.60583 19.83043,42.83704 38.4886,69.69365l3.61556,4.8435c20.2169,-10.19886 43.16633,-15.39705 68.8483,-15.59455c6.61267,-0.0508 13.40649,0.22982 20.38144,0.84186c12.76638,1.06939 30.00548,5.35532 51.7173,12.85781c7.47473,2.10203 37.85531,15.35841 91.14176,39.76911c9.40243,3.91154 18.9546,7.42371 28.65651,10.53649c24.76155,7.8434 50.11246,11.9509 76.05275,12.32249c0.79784,-0.0002 1.59397,-0.00335 2.38839,-0.00944c25.73912,-0.19791 49.66114,-3.51922 71.76606,-9.96393c14.06812,-3.87821 27.91932,-8.45044 41.55361,-13.7167c51.59416,-21.60792 80.95108,-33.28229 88.07076,-35.02313c16.60359,-5.60859 33.5958,-9.1781 50.97663,-10.70854c3.94006,-0.28455 7.83263,-0.44163 11.67773,-0.47126c13.54759,-0.1042 26.50424,1.37416 38.86996,4.43507c8.08229,1.88444 16.08448,4.12912 24.00657,6.73403c38.74696,13.99853 61.95324,21.93503 69.61885,23.8095c15.52654,4.62827 31.33506,7.75187 47.42554,9.37077c6.7103,0.60712 13.36751,0.88526 19.97164,0.83442c5.93278,-0.04564 11.82271,-0.35681 17.66979,-0.93351l20.0567,-33.49007c11.98596,-17.26274 21.30079,-28.99814 27.94447,-35.2062l-26.68633,-44.54505l-502.07514,-46.24838z"/>
   <g stroke="null" fill="#ca5639" id="Group 1">
    <path stroke="null" id="Path 1" d="m846.395284,1075.806302l-0.00014,0.0005l-0.00024,0.00049l0.00039,-0.00099"/>
   </g>
   <path stroke="null" fill="#ca5639" id="Path 1" d="m846.395284,1075.806302l-0.00014,0.0005l-0.00024,0.00049l0.00039,-0.00099"/>
   <g stroke="null" fill="#762430" id="Group 1">
    <path stroke="null" id="Path 1" d="m208.175634,737.595062l9.3724,-18.20081c57.50892,-76.46578 135.87519,-140.3362 235.09879,-191.61125l19.92471,-9.40854l45.07593,11.00232l105.4285,-70.69401l97.60666,43.17247c42.35844,-33.72477 88.71548,-67.12118 139.07115,-100.18922c102.97933,42.96864 187.14323,91.55024 252.49169,145.74479c81.82122,67.98601 143.68902,132.51594 185.60341,193.58981l-175.74653,59.89834l-201.96124,-55.05268l-283.39345,52.51589l-283.53623,-51.84935l-145.03578,-8.91775"/>
   </g>
   <path stroke="null" fill="#762430" id="Path 1" d="m208.175634,737.595062l9.3724,-18.20081c57.50892,-76.46578 135.87519,-140.3362 235.09879,-191.61125l19.92471,-9.40854l45.07593,11.00232l105.4285,-70.69401l97.60666,43.17247c42.35844,-33.72477 88.71548,-67.12118 139.07115,-100.18922c102.97933,42.96864 187.14323,91.55024 252.49169,145.74479c81.82122,67.98601 143.68902,132.51594 185.60341,193.58981l-175.74653,59.89834l-201.96124,-55.05268l-283.39345,52.51589l-283.53623,-51.84935l-145.03578,-8.91775"/>
   <g stroke="null" fill="#f1bd74" id="Group 1">
    <path stroke="null" id="Path 1" d="m575.585054,573.176522l-37.92751,-22.9977c8.03611,-2.93026 14.93257,-6.28751 20.6894,-10.07175l9.03457,-6.11192l30.14209,-22.05849l11.15603,-7.25632c7.06837,-4.36666 13.81491,-6.9693 20.23962,-7.80791c7.91556,-1.06149 17.76799,0.97396 29.55728,6.10637c8.85738,3.41456 26.74016,12.87828 53.64832,28.39117c-13.12285,13.07179 -37.98639,42.33057 -74.5906,87.77634l-61.94919,-45.96978"/>
   </g>
   <path stroke="null" fill="#f1bd74" id="Path 1" d="m575.585054,573.176522l-37.92751,-22.9977c8.03611,-2.93026 14.93257,-6.28751 20.6894,-10.07175l9.03457,-6.11192l30.14209,-22.05849l11.15603,-7.25632c7.06837,-4.36666 13.81491,-6.9693 20.23962,-7.80791c7.91556,-1.06149 17.76799,0.97396 29.55728,6.10637c8.85738,3.41456 26.74016,12.87828 53.64832,28.39117c-13.12285,13.07179 -37.98639,42.33057 -74.5906,87.77634l-61.94919,-45.96978"/>
   <g stroke="null" fill="#762430" id="Group 1">
    <path stroke="null" id="Path 1" d="m938.773964,674.347082c-2.72567,0.02094 -5.4537,0.08655 -8.18408,0.19683c-0.40381,0.01634 -0.8066,0.039 -1.20978,0.06846c-18.59118,1.35456 -38.45803,5.17151 -59.60055,11.45084l-0.00489,0.0013c-9.58567,2.84728 -19.09833,5.99744 -28.53797,9.45046c-0.32828,0.12008 -0.65549,0.2449 -0.98017,0.37409c-51.41568,20.45858 -80.42288,31.73255 -87.0216,33.82191l-0.01051,0.00005c-0.4948,0.13424 -0.9868,0.27837 -1.4758,0.43252c-21.48261,6.77918 -34.48432,10.58991 -39.00515,11.4322l-0.01014,-0.00008c-0.98586,0.15304 -1.965,0.34539 -2.93568,0.57649c-22.91752,5.45851 -45.93885,8.27666 -69.06398,8.45445c-4.45896,0.03443 -8.92346,-0.02923 -13.39351,-0.19098c-0.18188,-0.00668 -0.36784,-0.01197 -0.54975,-0.01585c-15.39877,-0.33083 -33.92982,-3.67059 -55.59317,-10.01928l-0.00377,0.00009c-19.18435,-5.78519 -51.53355,-17.4938 -97.04761,-35.12583c-0.2447,-0.09477 -0.49148,-0.18749 -0.73809,-0.27707c-14.24524,-5.17635 -28.54727,-9.7234 -42.9061,-13.64114l-0.00012,0c-15.14665,-4.13277 -30.4016,-7.11747 -45.76484,-8.95411c-0.65778,-0.07857 -1.31667,-0.13985 -1.97764,-0.18342l-20.38996,-1.34624c-0.917,-0.06053 -1.83574,-0.08728 -2.75444,-0.0802c-0.39825,0.00302 -0.79644,0.01245 -1.19455,0.0282l-20.56974,0.81477c-0.77863,0.03089 -1.5561,0.08586 -2.33126,0.16523c-24.51562,2.50971 -48.39748,8.15296 -71.64557,16.92973l-0.12479,0.04744c-30.4663,11.6259 -52.68084,24.07972 -66.64363,37.36146c-0.76669,0.72939 -1.50247,1.49135 -2.20484,2.28315c-2.70876,3.05366 -5.11013,6.16858 -7.2041,9.34478c-11.8021,17.90105 -14.05905,36.04463 -6.77086,54.43073l-0.00476,0.00007c3.53143,10.67118 7.90175,19.6692 13.11097,26.99404l-0.00006,0c10.34114,14.54128 23.53355,22.86335 39.57721,24.96621c1.70883,0.22408 3.43074,0.32968 5.15364,0.31646c0.16092,-0.00121 0.32194,-0.00342 0.48286,-0.00673c8.53443,-0.17581 16.88485,-1.93491 25.05126,-5.27729c2.29769,-0.94037 4.56952,-2.00351 6.81548,-3.18943c0.91441,-0.48297 1.80849,-1.00352 2.67984,-1.56041c12.54658,-8.01842 20.70933,-12.92648 24.48822,-14.72418l-0.00598,0.00003c0.28802,-0.0989 0.57463,-0.20144 0.86016,-0.30741c22.7701,-8.45679 39.00092,-14.06255 48.69246,-16.81727c0.35636,-0.10139 0.7127,-0.20829 1.06587,-0.32008c15.97573,-5.05896 31.99248,-7.65015 48.05026,-7.77357c0.84154,-0.00652 1.68304,-0.0063 2.52453,0.00066l-0.00697,0.00011l7.84974,0.62953l19.08807,3.10065l19.85203,4.63056l-0.00739,-0.00001c20.50174,5.49187 54.63776,16.96122 102.40806,34.40806c0.23959,0.08742 0.481,0.17279 0.72239,0.25556c15.07735,5.15928 30.24352,9.67472 45.49851,13.54632l-0.00006,0c16.04079,4.07088 32.24805,6.94907 48.62179,8.63457c0.64823,0.06662 1.29817,0.11638 1.94905,0.14926l21.99542,1.10871c0.72386,0.03652 1.44819,0.05204 2.17263,0.04646c0.58214,-0.00445 1.16417,-0.02262 1.74571,-0.0542l16.78437,-0.91281c1.26976,-0.06909 2.53522,-0.20282 3.79135,-0.40064l16.50066,-2.59829c0.63071,-0.09924 1.25857,-0.21486 1.88321,-0.34618c12.57595,-2.64558 24.99635,-6.1641 37.2612,-10.55557l0.04319,-0.0155c16.6583,-5.98781 43.57242,-17.28171 80.74237,-33.88172l-0.01136,0.00008l29.87522,-10.97967l-0.0116,-0.00002c9.28721,-2.75387 15.3906,-4.31674 18.31016,-4.6886l-0.01187,-0.00003c0.55238,-0.049 1.10401,-0.11053 1.65363,-0.18402c3.77069,-0.50496 7.56381,-0.77213 11.37935,-0.80152c1.16802,-0.00894 2.33904,0.00435 3.51306,0.03986c0.47233,0.01429 0.94539,0.01959 1.41811,0.01588c0.3278,-0.00255 0.65576,-0.0092 0.98335,-0.02036c0.10494,-0.00361 0.22419,-0.00591 0.35773,-0.00692c7.40007,-0.05689 21.1967,2.49596 41.38988,7.65855l-0.01248,0.00015l135.08593,40.6122c0.46954,0.14116 0.94174,0.27319 1.41656,0.39579l21.09505,5.44837c0.31561,0.08144 0.63217,0.15881 0.94971,0.232c10.70828,2.46949 22.3053,4.1276 34.79104,4.97434l-0.01442,0.0001c0.9618,0.10508 1.96769,0.18939 3.01766,0.25292l-0.0001,0.0001c2.39435,0.14508 5.42385,0.20352 9.0885,0.17532c4.66981,-0.03602 10.78861,-0.21048 18.35641,-0.52339c0.43437,-0.01808 0.86875,-0.04357 1.30234,-0.07658c18.85254,-1.43886 37.51219,-4.36202 55.97896,-8.76947l-0.01174,0.00017c28.55103,-6.47901 49.11511,-13.07261 61.69223,-19.78081c0.26779,-0.14268 0.53367,-0.28882 0.79794,-0.438c11.29552,-6.38197 20.36478,-13.75789 27.20777,-22.12776l0,-0.0001c13.26556,-16.22582 17.90415,-34.41738 13.91577,-54.57468c-0.63435,-3.20685 -1.68596,-6.31671 -3.12794,-9.2506c-7.42196,-15.09856 -20.70795,-23.96958 -39.85797,-26.61305c-2.06512,-0.28503 -4.20746,-0.49265 -6.42702,-0.62285c-0.82557,-0.04846 -1.6522,-0.06958 -2.4792,-0.06322c-0.05343,0.00031 -0.10667,0.00092 -0.1602,0.00149c-4.25848,0.05086 -8.56008,0.4425 -12.90482,1.17493c-0.75354,0.12702 -1.50262,0.27707 -2.24683,0.44982c-10.44772,2.42632 -17.23964,3.83106 -20.37575,4.21421l-0.01541,0.00017c-0.93492,0.02702 -1.86892,0.08912 -2.79969,0.18623c-10.5068,1.09561 -21.05324,1.6841 -31.6393,1.76545c-0.34492,0.00268 -0.67404,0.00478 -0.98736,0.00629c-0.03672,0.0002 -0.07339,0.00051 -0.11006,0.00069c-0.32195,0.00252 -0.64354,0.00904 -0.96573,0.01985c-1.69324,0.05676 -3.41349,0.09185 -5.16075,0.10525c-17.52713,0.13492 -37.51456,-1.89856 -59.9623,-6.10043c-0.16012,-0.03001 -0.31822,-0.0585 -0.47864,-0.08653l-1.63235,-0.28358l-0.01441,0.00008c-5.53139,-1.15149 -12.59149,-3.13601 -21.18029,-5.95358l-0.01421,0.00024c-52.8339,-19.72066 -86.49242,-31.20071 -100.97557,-34.44017l-0.01307,0.00012c-23.05977,-6.32704 -46.24728,-9.40092 -69.56253,-9.22166l-0.00004,0z"/>
   </g>
   <path stroke="null" fill="#762430" id="Path 1" d="m938.773964,674.347082c-2.72567,0.02094 -5.4537,0.08655 -8.18408,0.19683c-0.40381,0.01634 -0.8066,0.039 -1.20978,0.06846c-18.59118,1.35456 -38.45803,5.17151 -59.60055,11.45084l-0.00489,0.0013c-9.58567,2.84728 -19.09833,5.99744 -28.53797,9.45046c-0.32828,0.12008 -0.65549,0.2449 -0.98017,0.37409c-51.41568,20.45858 -80.42288,31.73255 -87.0216,33.82191l-0.01051,0.00005c-0.4948,0.13424 -0.9868,0.27837 -1.4758,0.43252c-21.48261,6.77918 -34.48432,10.58991 -39.00515,11.4322l-0.01014,-0.00008c-0.98586,0.15304 -1.965,0.34539 -2.93568,0.57649c-22.91752,5.45851 -45.93885,8.27666 -69.06398,8.45445c-4.45896,0.03443 -8.92346,-0.02923 -13.39351,-0.19098c-0.18188,-0.00668 -0.36784,-0.01197 -0.54975,-0.01585c-15.39877,-0.33083 -33.92982,-3.67059 -55.59317,-10.01928l-0.00377,0.00009c-19.18435,-5.78519 -51.53355,-17.4938 -97.04761,-35.12583c-0.2447,-0.09477 -0.49148,-0.18749 -0.73809,-0.27707c-14.24524,-5.17635 -28.54727,-9.7234 -42.9061,-13.64114l-0.00012,0c-15.14665,-4.13277 -30.4016,-7.11747 -45.76484,-8.95411c-0.65778,-0.07857 -1.31667,-0.13985 -1.97764,-0.18342l-20.38996,-1.34624c-0.917,-0.06053 -1.83574,-0.08728 -2.75444,-0.0802c-0.39825,0.00302 -0.79644,0.01245 -1.19455,0.0282l-20.56974,0.81477c-0.77863,0.03089 -1.5561,0.08586 -2.33126,0.16523c-24.51562,2.50971 -48.39748,8.15296 -71.64557,16.92973l-0.12479,0.04744c-30.4663,11.6259 -52.68084,24.07972 -66.64363,37.36146c-0.76669,0.72939 -1.50247,1.49135 -2.20484,2.28315c-2.70876,3.05366 -5.11013,6.16858 -7.2041,9.34478c-11.8021,17.90105 -14.05905,36.04463 -6.77086,54.43073l-0.00476,0.00007c3.53143,10.67118 7.90175,19.6692 13.11097,26.99404l-0.00006,0c10.34114,14.54128 23.53355,22.86335 39.57721,24.96621c1.70883,0.22408 3.43074,0.32968 5.15364,0.31646c0.16092,-0.00121 0.32194,-0.00342 0.48286,-0.00673c8.53443,-0.17581 16.88485,-1.93491 25.05126,-5.27729c2.29769,-0.94037 4.56952,-2.00351 6.81548,-3.18943c0.91441,-0.48297 1.80849,-1.00352 2.67984,-1.56041c12.54658,-8.01842 20.70933,-12.92648 24.48822,-14.72418l-0.00598,0.00003c0.28802,-0.0989 0.57463,-0.20144 0.86016,-0.30741c22.7701,-8.45679 39.00092,-14.06255 48.69246,-16.81727c0.35636,-0.10139 0.7127,-0.20829 1.06587,-0.32008c15.97573,-5.05896 31.99248,-7.65015 48.05026,-7.77357c0.84154,-0.00652 1.68304,-0.0063 2.52453,0.00066l-0.00697,0.00011l7.84974,0.62953l19.08807,3.10065l19.85203,4.63056l-0.00739,-0.00001c20.50174,5.49187 54.63776,16.96122 102.40806,34.40806c0.23959,0.08742 0.481,0.17279 0.72239,0.25556c15.07735,5.15928 30.24352,9.67472 45.49851,13.54632l-0.00006,0c16.04079,4.07088 32.24805,6.94907 48.62179,8.63457c0.64823,0.06662 1.29817,0.11638 1.94905,0.14926l21.99542,1.10871c0.72386,0.03652 1.44819,0.05204 2.17263,0.04646c0.58214,-0.00445 1.16417,-0.02262 1.74571,-0.0542l16.78437,-0.91281c1.26976,-0.06909 2.53522,-0.20282 3.79135,-0.40064l16.50066,-2.59829c0.63071,-0.09924 1.25857,-0.21486 1.88321,-0.34618c12.57595,-2.64558 24.99635,-6.1641 37.2612,-10.55557l0.04319,-0.0155c16.6583,-5.98781 43.57242,-17.28171 80.74237,-33.88172l-0.01136,0.00008l29.87522,-10.97967l-0.0116,-0.00002c9.28721,-2.75387 15.3906,-4.31674 18.31016,-4.6886l-0.01187,-0.00003c0.55238,-0.049 1.10401,-0.11053 1.65363,-0.18402c3.77069,-0.50496 7.56381,-0.77213 11.37935,-0.80152c1.16802,-0.00894 2.33904,0.00435 3.51306,0.03986c0.47233,0.01429 0.94539,0.01959 1.41811,0.01588c0.3278,-0.00255 0.65576,-0.0092 0.98335,-0.02036c0.10494,-0.00361 0.22419,-0.00591 0.35773,-0.00692c7.40007,-0.05689 21.1967,2.49596 41.38988,7.65855l-0.01248,0.00015l135.08593,40.6122c0.46954,0.14116 0.94174,0.27319 1.41656,0.39579l21.09505,5.44837c0.31561,0.08144 0.63217,0.15881 0.94971,0.232c10.70828,2.46949 22.3053,4.1276 34.79104,4.97434l-0.01442,0.0001c0.9618,0.10508 1.96769,0.18939 3.01766,0.25292l-0.0001,0.0001c2.39435,0.14508 5.42385,0.20352 9.0885,0.17532c4.66981,-0.03602 10.78861,-0.21048 18.35641,-0.52339c0.43437,-0.01808 0.86875,-0.04357 1.30234,-0.07658c18.85254,-1.43886 37.51219,-4.36202 55.97896,-8.76947l-0.01174,0.00017c28.55103,-6.47901 49.11511,-13.07261 61.69223,-19.78081c0.26779,-0.14268 0.53367,-0.28882 0.79794,-0.438c11.29552,-6.38197 20.36478,-13.75789 27.20777,-22.12776l0,-0.0001c13.26556,-16.22582 17.90415,-34.41738 13.91577,-54.57468c-0.63435,-3.20685 -1.68596,-6.31671 -3.12794,-9.2506c-7.42196,-15.09856 -20.70795,-23.96958 -39.85797,-26.61305c-2.06512,-0.28503 -4.20746,-0.49265 -6.42702,-0.62285c-0.82557,-0.04846 -1.6522,-0.06958 -2.4792,-0.06322c-0.05343,0.00031 -0.10667,0.00092 -0.1602,0.00149c-4.25848,0.05086 -8.56008,0.4425 -12.90482,1.17493c-0.75354,0.12702 -1.50262,0.27707 -2.24683,0.44982c-10.44772,2.42632 -17.23964,3.83106 -20.37575,4.21421l-0.01541,0.00017c-0.93492,0.02702 -1.86892,0.08912 -2.79969,0.18623c-10.5068,1.09561 -21.05324,1.6841 -31.6393,1.76545c-0.34492,0.00268 -0.67404,0.00478 -0.98736,0.00629c-0.03672,0.0002 -0.07339,0.00051 -0.11006,0.00069c-0.32195,0.00252 -0.64354,0.00904 -0.96573,0.01985c-1.69324,0.05676 -3.41349,0.09185 -5.16075,0.10525c-17.52713,0.13492 -37.51456,-1.89856 -59.9623,-6.10043c-0.16012,-0.03001 -0.31822,-0.0585 -0.47864,-0.08653l-1.63235,-0.28358l-0.01441,0.00008c-5.53139,-1.15149 -12.59149,-3.13601 -21.18029,-5.95358l-0.01421,0.00024c-52.8339,-19.72066 -86.49242,-31.20071 -100.97557,-34.44017l-0.01307,0.00012c-23.05977,-6.32704 -46.24728,-9.40092 -69.56253,-9.22166l-0.00004,0z"/>
   <g stroke="null" fill="#f47e50" id="Group 1">
    <path stroke="null" id="Path 1" d="m1123.460104,760.737202l2.2959,0.39893c27.39437,5.12769 51.8164,7.33216 73.26608,6.6134c12.15579,-0.05736 24.26631,-0.71512 36.33157,-1.97327c3.42287,0.05962 12.68213,-1.6635 27.77779,-5.16935c2.43259,-0.41 4.80882,-0.62887 7.1287,-0.6566c8.05929,0.47251 13.01737,2.59755 14.87427,6.37512c2.84107,14.35949 -4.76271,26.63792 -22.81134,36.8353c-9.62117,5.13161 -27.07368,10.5662 -52.35753,16.30378c-16.67237,4.00124 -33.51579,6.65108 -50.53028,7.94952c-14.13366,0.58436 -22.60347,0.65487 -25.40942,0.21152c-10.87472,-0.69251 -20.831,-2.08086 -29.86884,-4.16505l-21.09515,-5.44848l-135.90073,-40.85734c-24.70359,-6.3408 -42.36002,-9.33102 -52.96931,-8.97064c-7.04807,-0.21332 -14.04627,0.14527 -20.99462,1.07577c-4.90498,0.42187 -13.81556,2.56028 -26.73176,6.41523l-32.16435,11.82111c-36.94319,16.5143 -63.3919,27.6388 -79.34614,33.37349c-10.6587,3.81634 -21.44094,6.8716 -32.34672,9.16579l-16.50067,2.59849l-16.78453,0.91281l-21.99555,-1.10882c-14.55854,-1.49851 -28.97364,-4.05872 -43.24532,-7.68065c-14.27172,-3.62199 -28.46711,-7.84873 -42.58618,-12.6802c-49.29152,-18.00238 -84.70057,-29.86298 -106.22715,-35.58181l-21.60732,-5.04001l-21.84549,-3.54848l-10.63357,-0.85271c-21.34684,-0.33084 -42.54463,2.83634 -63.59338,9.50154c-10.63625,3.02326 -27.7999,8.93433 -51.49096,17.73322c-4.01902,1.12247 -14.84232,7.31651 -32.46991,18.58212c-5.03188,2.65693 -10.08298,4.0376 -15.1533,4.14199c-9.42966,-1.23606 -16.89535,-10.50287 -22.39706,-27.80042c-3.52973,-8.19364 -1.25183,-16.848 6.83372,-25.96309c10.33546,-9.83144 28.39767,-19.66773 54.18663,-29.50887c20.20723,-7.62866 40.95194,-12.53233 62.23412,-14.71101l20.56979,-0.81482l20.38984,1.34623c13.53335,1.61791 26.98458,4.25071 40.3537,7.89839c13.36913,3.64775 26.6939,7.88452 39.97428,12.71031c46.40676,17.97786 79.66119,29.99772 99.76328,36.05959c24.95813,7.33349 46.82581,11.20185 65.60301,11.60507c31.03111,1.12277 61.86003,-1.96322 92.48676,-9.25795c5.26068,-0.77248 20.10861,-5.0142 44.5438,-12.72516c4.4702,-1.06499 34.83115,-12.78888 91.08287,-35.17168c8.71469,-3.18787 17.49469,-6.09543 26.34002,-8.72267c18.54873,-5.50888 35.76914,-8.84231 51.66123,-10.00029c22.50536,-0.90917 44.92707,1.75084 67.26511,7.98004c11.49268,2.27884 43.97363,13.4011 97.44287,33.36678c10.56308,3.4897 19.44683,5.96764 26.65125,7.43382"/>
   </g>
   <path stroke="null" fill="#f47e50" id="Path 1" d="m1123.460104,760.737202l2.2959,0.39893c27.39437,5.12769 51.8164,7.33216 73.26608,6.6134c12.15579,-0.05736 24.26631,-0.71512 36.33157,-1.97327c3.42287,0.05962 12.68213,-1.6635 27.77779,-5.16935c2.43259,-0.41 4.80882,-0.62887 7.1287,-0.6566c8.05929,0.47251 13.01737,2.59755 14.87427,6.37512c2.84107,14.35949 -4.76271,26.63792 -22.81134,36.8353c-9.62117,5.13161 -27.07368,10.5662 -52.35753,16.30378c-16.67237,4.00124 -33.51579,6.65108 -50.53028,7.94952c-14.13366,0.58436 -22.60347,0.65487 -25.40942,0.21152c-10.87472,-0.69251 -20.831,-2.08086 -29.86884,-4.16505l-21.09515,-5.44848l-135.90073,-40.85734c-24.70359,-6.3408 -42.36002,-9.33102 -52.96931,-8.97064c-7.04807,-0.21332 -14.04627,0.14527 -20.99462,1.07577c-4.90498,0.42187 -13.81556,2.56028 -26.73176,6.41523l-32.16435,11.82111c-36.94319,16.5143 -63.3919,27.6388 -79.34614,33.37349c-10.6587,3.81634 -21.44094,6.8716 -32.34672,9.16579l-16.50067,2.59849l-16.78453,0.91281l-21.99555,-1.10882c-14.55854,-1.49851 -28.97364,-4.05872 -43.24532,-7.68065c-14.27172,-3.62199 -28.46711,-7.84873 -42.58618,-12.6802c-49.29152,-18.00238 -84.70057,-29.86298 -106.22715,-35.58181l-21.60732,-5.04001l-21.84549,-3.54848l-10.63357,-0.85271c-21.34684,-0.33084 -42.54463,2.83634 -63.59338,9.50154c-10.63625,3.02326 -27.7999,8.93433 -51.49096,17.73322c-4.01902,1.12247 -14.84232,7.31651 -32.46991,18.58212c-5.03188,2.65693 -10.08298,4.0376 -15.1533,4.14199c-9.42966,-1.23606 -16.89535,-10.50287 -22.39706,-27.80042c-3.52973,-8.19364 -1.25183,-16.848 6.83372,-25.96309c10.33546,-9.83144 28.39767,-19.66773 54.18663,-29.50887c20.20723,-7.62866 40.95194,-12.53233 62.23412,-14.71101l20.56979,-0.81482l20.38984,1.34623c13.53335,1.61791 26.98458,4.25071 40.3537,7.89839c13.36913,3.64775 26.6939,7.88452 39.97428,12.71031c46.40676,17.97786 79.66119,29.99772 99.76328,36.05959c24.95813,7.33349 46.82581,11.20185 65.60301,11.60507c31.03111,1.12277 61.86003,-1.96322 92.48676,-9.25795c5.26068,-0.77248 20.10861,-5.0142 44.5438,-12.72516c4.4702,-1.06499 34.83115,-12.78888 91.08287,-35.17168c8.71469,-3.18787 17.49469,-6.09543 26.34002,-8.72267c18.54873,-5.50888 35.76914,-8.84231 51.66123,-10.00029c22.50536,-0.90917 44.92707,1.75084 67.26511,7.98004c11.49268,2.27884 43.97363,13.4011 97.44287,33.36678c10.56308,3.4897 19.44683,5.96764 26.65125,7.43382"/>
   <g stroke="null" fill="#fedba3" id="Group 1">
    <path stroke="null" id="Path 1" d="m282.974484,686.435822l6.88065,-7.026c50.82269,-51.2777 110.48673,-92.40411 178.9921,-123.37922c-23.4282,28.03675 -35.92515,57.89112 -37.49085,89.56313c18.19173,-29.71675 40.33724,-59.01161 66.43653,-87.88457c28.06929,7.87844 53.57118,22.34706 76.50566,43.40584c-26.65069,18.26749 -43.78453,45.60399 -51.40152,82.00951c19.7393,-24.82382 43.22838,-48.48122 70.46723,-70.97219c18.71188,13.34017 34.23822,29.16158 46.57903,47.46424c21.25995,-30.80671 43.23031,-59.62894 65.91109,-86.46669c40.62268,20.33701 74.99182,44.81946 103.10742,73.44733c-16.91215,-37.0331 -46.21766,-67.44156 -87.91654,-91.22538c29.78861,-33.16327 60.18501,-61.7876 91.1892,-85.87301c47.50757,32.65814 83.98362,69.87957 109.42816,111.66428c-10.95366,-47.82225 -37.73323,-90.16275 -80.33872,-127.02152c14.15868,-12.59112 26.57848,-18.28443 37.25941,-17.07993c3.98136,0.29116 7.02827,0.8026 9.14074,1.53431c42.44794,23.84355 65.31438,36.96659 68.59931,39.36911c21.57752,13.8152 37.01425,26.41711 46.31019,37.80572c27.29444,31.38677 48.6082,76.37955 63.94128,134.97835c2.46202,-13.32381 2.11341,-30.40493 -1.04583,-51.24335c-4.39372,-21.79861 -11.77335,-40.58121 -22.13889,-56.34781l2.53147,-8.94259c99.18883,72.13601 167.25042,138.51549 204.18478,199.13845c-30.81113,8.1883 -59.70207,9.73655 -86.6728,4.64476c-10.54719,-1.48895 -25.21509,-5.19198 -44.00369,-11.1091c-64.43621,-24.88358 -101.55913,-38.02079 -111.36875,-39.41165c-25.28881,-6.36648 -50.88203,-8.94957 -76.77964,-7.74927c-17.1859,0.84899 -34.03086,3.67165 -50.53488,8.46797l-151.55985,56.08329l-12.67696,3.618c-25.71419,6.39362 -51.84637,8.73019 -78.39653,7.00972c-29.56435,-2.69064 -52.39728,-6.85635 -68.49878,-12.49714c-9.55933,-2.02932 -46.86581,-16.31894 -111.91945,-42.86886c-19.50705,-7.14202 -37.13093,-12.27078 -52.87163,-15.38627c-40.91966,-8.58029 -81.53597,-7.82011 -121.84893,2.28055"/>
   </g>
   <path stroke="null" fill="#fedba3" id="Path 1" d="m282.974484,686.435822l6.88065,-7.026c50.82269,-51.2777 110.48673,-92.40411 178.9921,-123.37922c-23.4282,28.03675 -35.92515,57.89112 -37.49085,89.56313c18.19173,-29.71675 40.33724,-59.01161 66.43653,-87.88457c28.06929,7.87844 53.57118,22.34706 76.50566,43.40584c-26.65069,18.26749 -43.78453,45.60399 -51.40152,82.00951c19.7393,-24.82382 43.22838,-48.48122 70.46723,-70.97219c18.71188,13.34017 34.23822,29.16158 46.57903,47.46424c21.25995,-30.80671 43.23031,-59.62894 65.91109,-86.46669c40.62268,20.33701 74.99182,44.81946 103.10742,73.44733c-16.91215,-37.0331 -46.21766,-67.44156 -87.91654,-91.22538c29.78861,-33.16327 60.18501,-61.7876 91.1892,-85.87301c47.50757,32.65814 83.98362,69.87957 109.42816,111.66428c-10.95366,-47.82225 -37.73323,-90.16275 -80.33872,-127.02152c14.15868,-12.59112 26.57848,-18.28443 37.25941,-17.07993c3.98136,0.29116 7.02827,0.8026 9.14074,1.53431c42.44794,23.84355 65.31438,36.96659 68.59931,39.36911c21.57752,13.8152 37.01425,26.41711 46.31019,37.80572c27.29444,31.38677 48.6082,76.37955 63.94128,134.97835c2.46202,-13.32381 2.11341,-30.40493 -1.04583,-51.24335c-4.39372,-21.79861 -11.77335,-40.58121 -22.13889,-56.34781l2.53147,-8.94259c99.18883,72.13601 167.25042,138.51549 204.18478,199.13845c-30.81113,8.1883 -59.70207,9.73655 -86.6728,4.64476c-10.54719,-1.48895 -25.21509,-5.19198 -44.00369,-11.1091c-64.43621,-24.88358 -101.55913,-38.02079 -111.36875,-39.41165c-25.28881,-6.36648 -50.88203,-8.94957 -76.77964,-7.74927c-17.1859,0.84899 -34.03086,3.67165 -50.53488,8.46797l-151.55985,56.08329l-12.67696,3.618c-25.71419,6.39362 -51.84637,8.73019 -78.39653,7.00972c-29.56435,-2.69064 -52.39728,-6.85635 -68.49878,-12.49714c-9.55933,-2.02932 -46.86581,-16.31894 -111.91945,-42.86886c-19.50705,-7.14202 -37.13093,-12.27078 -52.87163,-15.38627c-40.91966,-8.58029 -81.53597,-7.82011 -121.84893,2.28055"/>
  </g>
 </g>
</svg>