<svg version="1.1" xmlns="http://www.w3.org/2000/svg" xmlns:xlink="http://www.w3.org/1999/xlink" width="2000" height="2000" viewBox="-820,-692,2000,2000"><defs><clipPath id="clip-1"><rect x="-315.28658" y="104.33058" transform="scale(0.69778,0.69778)" width="1146.49667" height="674.14127" id="clip-1" fill="none"/></clipPath></defs><g data-paper-data="{&quot;layerid&quot;:&quot;document&quot;,&quot;name&quot;:&quot;document&quot;,&quot;stage&quot;:false,&quot;vgx&quot;:{&quot;signed&quot;:true,&quot;selected&quot;:false,&quot;unsigned&quot;:false,&quot;contained&quot;:false,&quot;visible&quot;:true,&quot;id&quot;:&quot;7smlxlr0w_1634530232084112&quot;,&quot;changeset&quot;:&quot;4wreaosab_1634530232084113&quot;,&quot;staticid&quot;:&quot;cghjmki9k_1634530232084114&quot;,&quot;name&quot;:&quot;document&quot;,&quot;altname&quot;:&quot;&quot;,&quot;owner&quot;:null,&quot;layer&quot;:true,&quot;class&quot;:&quot;item&quot;,&quot;type&quot;:&quot;default&quot;,&quot;ui&quot;:false,&quot;actor&quot;:false,&quot;props&quot;:{},&quot;locked&quot;:false,&quot;strokeScaling&quot;:true,&quot;container&quot;:false,&quot;layerid&quot;:&quot;document&quot;}}" id="document" fill-opacity="0" fill="#ffffff" fill-rule="nonzero" stroke="#000000" stroke-width="0" stroke-linecap="butt" stroke-linejoin="miter" stroke-miterlimit="10" stroke-dasharray="" stroke-dashoffset="0" font-family="none" font-weight="none" font-size="none" text-anchor="none" style="mix-blend-mode: normal"><rect x="-287" y="-173" transform="scale(2.85714,4)" width="700" height="500" data-paper-data="{&quot;vgx&quot;:{&quot;signed&quot;:true,&quot;selected&quot;:false,&quot;unsigned&quot;:false,&quot;contained&quot;:false,&quot;visible&quot;:true,&quot;id&quot;:&quot;alh17twl6_1634530232296234&quot;,&quot;changeset&quot;:&quot;jp9e97rtu_1634530232296235&quot;,&quot;staticid&quot;:&quot;d843vakn2_1634530232296236&quot;,&quot;name&quot;:&quot;Shape&quot;,&quot;altname&quot;:&quot;&quot;,&quot;owner&quot;:null,&quot;layer&quot;:false,&quot;class&quot;:&quot;document&quot;,&quot;type&quot;:&quot;document&quot;,&quot;ui&quot;:false,&quot;actor&quot;:true,&quot;props&quot;:{},&quot;locked&quot;:false,&quot;strokeScaling&quot;:true,&quot;container&quot;:false},&quot;v_data&quot;:null}" id="Shape 1" vector-effect="non-scaling-stroke"/></g><g fill="none" fill-rule="nonzero" stroke="none" stroke-width="1" stroke-linecap="none" stroke-linejoin="none" stroke-miterlimit="10" stroke-dasharray="" stroke-dashoffset="0" font-family="none" font-weight="none" font-size="none" text-anchor="none" style="mix-blend-mode: normal"><g><g data-paper-data="{&quot;layerid&quot;:&quot;stage&quot;,&quot;name&quot;:&quot;stage&quot;,&quot;stage&quot;:false,&quot;vgx&quot;:{&quot;signed&quot;:true,&quot;selected&quot;:false,&quot;unsigned&quot;:false,&quot;contained&quot;:false,&quot;visible&quot;:true,&quot;id&quot;:&quot;c05yy1wrz_1634530232085115&quot;,&quot;changeset&quot;:&quot;epjpxmpnj_1634530232085116&quot;,&quot;staticid&quot;:&quot;buiuy02yh_1634530232085117&quot;,&quot;name&quot;:&quot;stage&quot;,&quot;altname&quot;:&quot;&quot;,&quot;owner&quot;:null,&quot;layer&quot;:true,&quot;class&quot;:&quot;item&quot;,&quot;type&quot;:&quot;default&quot;,&quot;ui&quot;:false,&quot;actor&quot;:false,&quot;props&quot;:{},&quot;locked&quot;:false,&quot;strokeScaling&quot;:true,&quot;container&quot;:false,&quot;layerid&quot;:&quot;stage&quot;}}" id="stage"><g id="Layer2 1" stroke-opacity="0" stroke="#000000" stroke-linecap="round" stroke-linejoin="round"><path d="M-310,318c0,-276.14237 223.85763,-500 500,-500c276.14237,0 500,223.85763 500,500c0,276.14237 -223.85763,500 -500,500c-276.14237,0 -500,-223.85763 -500,-500z" id="Path 1" fill="#b3b3b3"/><path d="M-320,308c0,-276.14237 223.85763,-500 500,-500c276.14237,0 500,223.85763 500,500c0,276.14237 -223.85763,500 -500,500c-276.14237,0 -500,-223.85763 -500,-500z" id="Path 1" fill="#f4f4f4"/></g><g id="layer1 1" stroke="none" stroke-linecap="butt" stroke-linejoin="miter"><g clip-path="url(#clip-1)" id="Group 1"><g id="Group 1"><g id="Group 1 1"><g id="Group 1" fill="#762430"><path d="M564.03234,490.93825l-3.49518,2.81698c-16.62893,5.75324 -65.38201,10.64286 -146.25924,14.66887c-81.43717,4.02782 -177.35611,6.17251 -287.75684,6.43406c-105.36551,-0.03237 -189.64987,-1.94862 -252.85307,-5.74875c-20.25113,-1.22992 -36.93487,-2.61379 -50.05122,-4.1516l-16.53969,-2.40154c-9.08968,-1.67106 -13.69324,-3.45465 -13.8107,-5.35076c2.70773,-5.84349 40.29376,-10.99273 112.75809,-15.44773c72.46436,-4.45495 163.28375,-7.19975 272.45819,-8.23441c109.17684,-0.74071 200.02877,0.52688 272.55577,3.80276c72.52698,3.27607 110.19162,7.81344 112.99391,13.6121" id="Path 1"/></g><g id="Group 1" fill="#762430"><path d="M116.53212,288.73793c-0.85391,0.00656 -1.70752,0.05567 -2.55759,0.14725l-268.75568,28.97534c-7.84865,0.84622 -14.87317,5.25206 -19.05192,11.94968c-4.17875,6.6972 -5.04815,14.94342 -2.35807,22.36523l2.10855,5.81715l-0.00026,0.00006c5.65804,15.79801 15.62893,33.97703 29.91266,54.53705c0.16642,0.23954 0.33704,0.47641 0.51155,0.7101l43.74618,58.60438c0.05491,0.07357 0.11046,0.14716 0.16615,0.2202c5.66541,7.42209 12.05306,13.90452 19.16297,19.4473c0.1424,0.11106 0.28524,0.22003 0.42998,0.32801c10.94767,8.17045 23.73773,13.55773 38.37017,16.16182l-0.00507,0.00014c0.8177,0.20279 1.67259,0.38497 2.56463,0.54656h-0.00004c7.70044,1.39466 32.09872,3.07673 73.19485,5.04622c0.06987,0.00335 0.13727,0.00627 0.20719,0.00906c24.77264,0.98694 49.55682,1.38504 74.35254,1.19432c2.88729,-0.02223 5.76612,-0.05228 8.63647,-0.09016c0.05699,-0.00085 0.12003,-0.00181 0.17698,-0.00301l186.38307,-3.74581l46.5885,-0.33469l0.09273,-0.00083c17.49859,-0.18901 34.71734,-2.27633 51.65624,-6.26198c0.22759,-0.05347 0.45359,-0.10984 0.67961,-0.16964c19.99976,-5.28516 35.71997,-14.71734 47.16061,-28.29655l-0.00998,0.00007c3.64577,-4.05598 7.53575,-9.31514 11.66994,-15.77748c0.13773,-0.21527 0.27268,-0.43314 0.40389,-0.65257l25.76083,-43.04505l-0.0104,0.00006c7.10669,-10.2042 12.27909,-16.81918 15.5172,-19.84496c8.85124,-8.27068 10.7263,-21.59862 4.50071,-31.99042l-18.62102,-31.08241c-4.21333,-7.03259 -11.52827,-11.6337 -19.69181,-12.38565l-350.33702,-32.27124c-0.85001,-0.07832 -1.70284,-0.11407 -2.55534,-0.10754z" id="Path 1"/></g><g id="Group 1"><g id="Group 1" fill="#f47e50"><path d="M-152.02593,343.4162l2.10858,5.8173c4.88507,13.68051 13.83724,29.89074 26.85649,48.63069l43.74622,58.60438c4.32382,5.6645 9.16872,10.58837 14.53468,14.77161c7.95204,5.93473 17.47962,9.81496 28.58273,11.64071c3.30073,1.23659 27.10034,2.91633 71.39881,5.03921c27.19542,1.08343 54.4042,1.44541 81.62631,1.08593l186.54487,-3.74918l46.75851,-0.33588c15.60365,-0.16839 30.9525,-2.0284 46.04653,-5.58003c14.98172,-3.95904 26.45983,-10.77368 34.43434,-20.44393c2.74735,-3.02277 5.84773,-7.23317 9.30115,-12.6312l26.27543,-43.9052c8.36354,-12.04556 14.86322,-20.23426 19.49903,-24.56611l-18.62113,-31.08255l-350.33693,-32.2711l-268.75563,28.97534" id="Path 1"/></g><g id="Group 1" fill="#ca5639"><path d="M116.7297,314.44086l-268.75563,28.97534l2.10858,5.8173c4.88507,13.68051 13.83724,29.89074 26.85649,48.63069l2.52286,3.37969c14.10691,-7.11654 30.12051,-10.74372 48.04082,-10.88153c4.61417,-0.03545 9.35475,0.16036 14.22172,0.58743c8.9081,0.7462 20.93716,3.73682 36.08719,8.9719c5.2157,1.46675 26.4146,10.71676 63.5967,27.75c6.56081,2.72939 13.2261,5.1801 19.99588,7.35213c17.27806,5.47295 34.96737,8.33907 53.06793,8.59836c0.55672,-0.00014 1.11224,-0.00234 1.66657,-0.00659c17.96019,-0.1381 34.65244,-2.45563 50.07677,-6.95261c9.81642,-2.70613 19.48148,-5.89653 28.99519,-9.57121c36.00126,-15.07753 56.48587,-23.22365 61.45383,-24.43836c11.58562,-3.91355 23.44241,-6.40428 35.57036,-7.47218c2.74929,-0.19855 5.46544,-0.30816 8.14846,-0.32883c9.45321,-0.07271 18.49407,0.95886 27.1226,3.09469c5.63964,1.31492 11.22339,2.88121 16.75125,4.69886c27.03677,9.76786 43.2296,15.30578 48.57849,16.61374c10.83408,3.2295 21.86491,5.40908 33.09249,6.53872c4.6823,0.42363 9.32755,0.61771 13.93577,0.58224c4.13976,-0.03185 8.24963,-0.24897 12.32959,-0.65138l13.99512,-23.36863c8.36354,-12.04556 14.86322,-20.23426 19.49903,-24.56611l-18.62113,-31.08255z" id="Path 1"/></g></g><g id="Group 1" fill="#ca5639"><path d="M247.2625,543.19974l-0.0001,0.00035l-0.00017,0.00034l0.00027,-0.00069" id="Path 1"/></g><g id="Group 1" fill="#762430"><path d="M-198.07304,307.20342l6.53985,-12.70012c40.12845,-53.35613 94.8107,-97.92349 164.04673,-133.70209l13.90302,-6.56507l31.45299,7.67718l73.56567,-49.32872l68.10777,30.12479c29.55678,-23.5324 61.9037,-46.83567 97.04077,-69.90982c71.8567,29.98257 130.5844,63.88173 176.18311,101.69749c57.09304,47.43913 100.26302,92.46669 129.50995,135.08268l-122.63204,41.79574l-140.92408,-38.41454l-197.74568,36.64443l-197.84531,-36.17933l-101.20276,-6.22261" id="Path 1"/></g><g id="Group 1" fill="#f1bd74"><path d="M58.29712,192.4758l-26.46498,-16.04729c5.60742,-2.04467 10.41962,-4.38729 14.43661,-7.02784l6.30412,-4.26476l21.03248,-15.39193l7.78443,-5.0633c4.93215,-3.04696 9.63974,-4.86302 14.12276,-5.44819c5.5233,-0.74068 12.39811,0.67961 20.62442,4.26089c6.18048,2.3826 18.65869,8.98618 37.43461,19.81073c-9.15683,9.12121 -26.50606,29.53733 -52.04767,61.24839l-43.22677,-32.07669" id="Path 1"/></g><g id="Group 1" fill="#762430"><path d="M311.7223,263.07038c-1.90191,0.01461 -3.80547,0.06039 -5.71067,0.13734c-0.28177,0.0114 -0.56283,0.02721 -0.84416,0.04777c-12.97251,0.94518 -26.83516,3.60857 -41.58794,7.99014l-0.00341,0.00091c-6.68867,1.98677 -13.32639,4.18488 -19.91316,6.59432c-0.22907,0.08379 -0.45739,0.17089 -0.68394,0.26103c-35.87672,14.27554 -56.11731,22.14227 -60.72175,23.60018l-0.00733,0.00003c-0.34526,0.09367 -0.68857,0.19424 -1.02978,0.3018c-14.99009,4.73036 -24.0624,7.3894 -27.21693,7.97714l-0.00708,-0.00006c-0.68791,0.10679 -1.37113,0.24101 -2.04845,0.40226c-15.99134,3.80883 -32.05511,5.77527 -48.19132,5.89933c-3.11136,0.02402 -6.22659,-0.0204 -9.34569,-0.13326c-0.12691,-0.00466 -0.25667,-0.00835 -0.3836,-0.01106c-10.74492,-0.23085 -23.67548,-2.56126 -38.79168,-6.99123l-0.00263,0.00006c-13.38641,-4.03678 -35.95897,-12.20679 -67.71767,-24.51003c-0.17075,-0.06613 -0.34294,-0.13083 -0.51502,-0.19333c-9.94001,-3.61194 -19.91965,-6.78477 -29.93893,-9.51849h-0.00008c-10.569,-2.88376 -21.21356,-4.96641 -31.93369,-6.24798c-0.45898,-0.05482 -0.91874,-0.09758 -1.37995,-0.12799l-14.22766,-0.93938c-0.63986,-0.04224 -1.28094,-0.0609 -1.92199,-0.05596c-0.27789,0.00211 -0.55574,0.00869 -0.83353,0.01968l-14.35311,0.56853c-0.54331,0.02155 -1.08581,0.05991 -1.6267,0.11529c-17.10646,1.75122 -33.77069,5.68896 -49.99269,11.81319l-0.08708,0.0331c-21.25871,8.1123 -36.75952,16.8023 -46.50245,26.07c-0.53498,0.50895 -1.04839,1.04063 -1.53849,1.59313c-1.89011,2.13078 -3.56574,4.3043 -5.02686,6.52058c-8.23524,12.49096 -9.81009,25.15115 -4.72456,37.98056l-0.00332,0.00005c2.46415,7.44611 5.51367,13.72473 9.14854,18.83584h-0.00004c7.21582,10.14658 16.42119,15.95354 27.6161,17.42087c1.19238,0.15636 2.39389,0.23004 3.5961,0.22082c0.11229,-0.00084 0.22464,-0.00239 0.33693,-0.0047c5.95514,-0.12268 11.78187,-1.35014 17.48021,-3.68238c1.60328,-0.65617 3.18851,-1.398 4.75569,-2.22551c0.63806,-0.33701 1.26192,-0.70023 1.86993,-1.08882c8.75473,-5.59508 14.45051,-9.01981 17.08734,-10.27421l-0.00417,0.00002c0.20097,-0.06901 0.40096,-0.14056 0.6002,-0.2145c15.88847,-5.90096 27.21398,-9.81254 33.97652,-11.73472c0.24866,-0.07075 0.49731,-0.14534 0.74374,-0.22334c11.14751,-3.53003 22.32364,-5.33811 33.52841,-5.42423c0.58721,-0.00455 1.17439,-0.0044 1.76156,0.00046l-0.00486,0.00008l5.47737,0.43927l13.31923,2.16356l13.85231,3.2311l-0.00516,-0.00001c14.30566,3.83211 38.12502,11.83516 71.45808,24.00918c0.16718,0.061 0.33563,0.12057 0.50407,0.17832c10.52064,3.60003 21.10326,6.75081 31.74785,9.45232h-0.00004c11.19291,2.84057 22.50198,4.84891 33.92721,6.02501c0.45232,0.04649 0.90583,0.08121 1.36,0.10415l15.34792,0.77363c0.50509,0.02548 1.01051,0.03631 1.51601,0.03242c0.4062,-0.00311 0.81233,-0.01578 1.21812,-0.03782l11.71176,-0.63694c0.88601,-0.04821 1.76902,-0.14152 2.64552,-0.27956l11.5138,-1.81303c0.4401,-0.06925 0.8782,-0.14992 1.31406,-0.24156c8.77522,-1.84603 17.4419,-4.30117 26.00004,-7.36544l0.03014,-0.01082c11.62379,-4.17816 30.40387,-12.05879 56.34024,-23.64191l-0.00793,0.00006l20.84627,-7.66137l-0.00809,-0.00001c6.48041,-1.92159 10.73922,-3.01213 12.77642,-3.2716l-0.00828,-0.00002c0.38544,-0.03419 0.77035,-0.07713 1.15387,-0.12841c2.6311,-0.35235 5.27786,-0.53878 7.94026,-0.55928c0.81502,-0.00624 1.63213,0.00304 2.45134,0.02781c0.32958,0.00997 0.65967,0.01367 0.98953,0.01108c0.22873,-0.00178 0.45757,-0.00642 0.68616,-0.01421c0.07322,-0.00252 0.15643,-0.00412 0.24962,-0.00483c5.16361,-0.0397 14.79059,1.74163 28.88094,5.34397l-0.00871,0.0001l94.25997,28.33829c0.32763,0.0985 0.65713,0.19063 0.98844,0.27617l14.71966,3.80175c0.22023,0.05683 0.44111,0.11081 0.66269,0.16188c7.472,1.72316 15.56414,2.88015 24.27642,3.47098l-0.01006,0.00007c0.67112,0.07332 1.37301,0.13215 2.10566,0.17648l-0.00007,0.00007c1.67072,0.10123 3.78464,0.14201 6.34175,0.12233c3.25849,-0.02513 7.52805,-0.14687 12.8087,-0.36521c0.30309,-0.01262 0.60619,-0.0304 0.90874,-0.05344c13.15489,-1.004 26.17518,-3.04372 39.06088,-6.11914l-0.00819,0.00012c19.92228,-4.52091 34.27144,-9.12178 43.04747,-13.80261c0.18686,-0.09956 0.37238,-0.20153 0.55678,-0.30563c7.88176,-4.4532 14.21009,-9.59995 18.98498,-15.44026v-0.00007c9.25641,-11.32202 12.49312,-24.01569 9.71012,-38.081c-0.44264,-2.23767 -1.17643,-4.40766 -2.18261,-6.45486c-5.17888,-10.53544 -14.44955,-16.72544 -27.81201,-18.57c-1.441,-0.19889 -2.93587,-0.34376 -4.48463,-0.43461c-0.57606,-0.03381 -1.15287,-0.04855 -1.72993,-0.04411c-0.03728,0.00022 -0.07443,0.00064 -0.11178,0.00104c-2.97147,0.03549 -5.97303,0.30877 -9.0047,0.81984c-0.5258,0.08863 -1.04849,0.19333 -1.56779,0.31387c-7.29019,1.69303 -12.02944,2.67323 -14.21775,2.94058l-0.01075,0.00012c-0.65237,0.01885 -1.30409,0.06219 -1.95356,0.12995c-7.33141,0.76449 -14.69048,1.17513 -22.0772,1.23189c-0.24068,0.00187 -0.47033,0.00334 -0.68896,0.00439c-0.02562,0.00014 -0.05121,0.00036 -0.0768,0.00048c-0.22465,0.00176 -0.44905,0.00631 -0.67387,0.01385c-1.18151,0.03961 -2.38186,0.06409 -3.60106,0.07344c-12.23004,0.09414 -26.17683,-1.32477 -41.84037,-4.25675c-0.11173,-0.02094 -0.22205,-0.04082 -0.33398,-0.06038l-1.13902,-0.19788l-0.01005,0.00006c-3.85968,-0.80348 -8.78606,-2.18824 -14.77914,-4.15428l-0.00992,0.00017c-36.86633,-13.76064 -60.3525,-21.77116 -70.45852,-24.03159l-0.00912,0.00008c-16.0906,-4.41487 -32.27033,-6.55975 -48.53919,-6.43467z" id="Path 1"/></g><g id="Group 1" fill="#f47e50"><path d="M440.5922,323.35149l1.60203,0.27836c19.11519,3.57799 36.15634,5.11622 51.12345,4.61468c8.48204,-0.04002 16.93249,-0.49899 25.35137,-1.3769c2.3884,0.0416 8.84931,-1.16075 19.38273,-3.60706c1.69741,-0.28609 3.35549,-0.43881 4.97425,-0.45816c5.62359,0.32971 9.08323,1.81251 10.37894,4.44842c1.98244,10.01973 -3.32331,18.58735 -15.91725,25.70286c-6.71344,3.58072 -18.89141,7.37286 -36.53393,11.37642c-11.63361,2.79198 -23.38658,4.64098 -35.25891,5.547c-9.86216,0.40775 -15.7722,0.45695 -17.73013,0.14759c-7.58814,-0.48322 -14.53541,-1.45198 -20.84182,-2.90628l-14.71973,-3.80183l-94.82852,-28.50935c-17.23762,-4.42447 -29.55788,-6.51098 -36.96081,-6.25951c-4.91799,-0.14885 -9.80118,0.10137 -14.64958,0.75065c-3.42259,0.29437 -9.64019,1.78651 -18.65283,4.47641l-22.44357,8.24851c-25.77814,11.52331 -44.23346,19.28574 -55.36598,23.28728c-7.4374,2.66296 -14.96101,4.79485 -22.57083,6.39569l-11.5138,1.81317l-11.71187,0.63694l-15.34801,-0.77371c-10.15863,-1.04563 -20.21716,-2.83208 -30.17563,-5.35939c-9.95849,-2.52734 -19.86372,-5.47667 -29.71569,-8.84796c-34.39453,-12.56166 -59.10218,-20.83773 -74.12295,-24.8282l-15.07711,-3.51681l-15.2433,-2.47605l-7.41987,-0.595c-14.89535,-0.23085 -29.6867,1.97914 -44.37405,6.62996c-7.42174,2.10956 -19.39815,6.23418 -35.92925,12.37385c-2.80438,0.78323 -10.35664,5.1053 -22.65678,12.96619c-3.51113,1.85395 -7.03568,2.81735 -10.57364,2.89019c-6.57981,-0.8625 -11.7892,-7.32867 -15.62817,-19.39852c-2.46297,-5.71734 -0.8735,-11.75616 4.76842,-18.11647c7.21186,-6.86016 19.81527,-13.72371 37.81023,-20.59064c14.10016,-5.32311 28.57536,-8.74478 43.42559,-10.26502l14.35314,-0.56856l14.22758,0.93937c9.44327,1.12894 18.82924,2.96605 28.15792,5.51132c9.32868,2.54532 18.62641,5.50164 27.89317,8.86897c32.38161,12.54455 55.58582,20.93175 69.61261,25.16158c17.41523,5.11715 32.67401,7.8164 45.77633,8.09776c21.65282,0.78344 43.16456,-1.36989 64.53521,-6.45999c3.67079,-0.53902 14.03134,-3.4988 31.08168,-8.87933c3.11921,-0.74313 24.30441,-8.9238 63.55561,-24.54202c6.08092,-2.22443 12.20741,-4.25326 18.37948,-6.08649c12.94289,-3.84397 24.95891,-6.16997 36.04806,-6.97798c15.70374,-0.6344 31.34912,1.2217 46.9361,5.5683c8.01934,1.59012 30.68383,9.35099 67.99348,23.2826c7.37068,2.43504 13.56957,4.16409 18.59665,5.18716" id="Path 1"/></g><g id="Group 1" fill="#fedba3"><path d="M-145.88006,271.50563l4.80117,-4.90259c35.46295,-35.78044 77.09519,-64.47754 124.89673,-86.09129c-16.34768,19.56342 -25.06777,40.39514 -26.16029,62.49517c12.69379,-20.73569 28.14643,-41.177 46.35794,-61.32391c19.58613,5.4974 37.38078,15.59328 53.38396,30.28763c-18.59626,12.74665 -30.55188,31.82145 -35.86684,57.22442c13.77365,-17.32151 30.16381,-33.82912 49.17047,-49.52282c13.05674,9.30848 23.89067,20.34831 32.50182,33.1195c14.83472,-21.49624 30.16515,-41.60775 45.9913,-60.33454c28.34561,14.19072 52.32763,31.27403 71.94608,51.24992c-11.80092,-25.84088 -32.24966,-47.05923 -61.34622,-63.65505c20.78583,-23.1406 41.99577,-43.11402 63.62981,-59.92029c33.14973,22.78813 58.60191,48.76042 76.35655,77.91686c-7.64322,-33.36931 -26.32941,-62.91357 -56.05858,-88.63281c9.87961,-8.7858 18.54588,-12.75847 25.99879,-11.918c2.7781,0.20317 4.90417,0.56004 6.37821,1.07061c29.61923,16.6375 45.57493,25.79447 47.86708,27.47089c15.05632,9.63994 25.82772,18.43327 32.31423,26.37999c19.04546,21.90099 33.91773,53.29596 44.61681,94.18491c1.71794,-9.29706 1.47469,-21.21589 -0.72976,-35.75648c-3.06584,-15.21059 -8.21518,-28.31667 -15.44803,-39.31825l1.7664,-6.23994c69.21177,50.33491 116.70364,96.65304 142.47562,138.9544c-21.49932,5.71361 -41.65878,6.79395 -60.47836,3.24101c-7.3596,-1.03896 -17.59453,-3.62285 -30.7048,-7.75168c-44.96216,-17.36321 -70.86571,-26.53007 -77.71065,-27.50058c-17.64597,-4.44239 -35.50435,-6.24481 -53.57513,-5.40727c-11.99194,0.59241 -23.74598,2.562 -35.26212,5.90876l-105.75511,39.13368l-8.8457,2.52456c-17.94279,4.46133 -36.17725,6.09173 -54.70336,4.89123c-20.62935,-1.87747 -36.56166,-4.78421 -47.79693,-8.72023c-6.67029,-1.41601 -32.70192,-11.387 -78.09492,-29.91294c-13.61159,-4.98354 -25.90914,-8.56228 -36.89265,-10.7362c-28.55283,-5.98714 -56.894,-5.4567 -85.02349,1.59132" id="Path 1"/></g></g><g id="Group 1 1" fill="#762430"><path d="M564.03234,490.93825l-3.49518,2.81698c-16.62893,5.75324 -65.38201,10.64286 -146.25924,14.66887c-81.43717,4.02782 -177.35611,6.17251 -287.75684,6.43406c-105.36551,-0.03237 -189.64987,-1.94862 -252.85307,-5.74875c-20.25113,-1.22992 -36.93487,-2.61379 -50.05122,-4.1516l-16.53969,-2.40154c-9.08968,-1.67106 -13.69324,-3.45465 -13.8107,-5.35076c2.70773,-5.84349 40.29376,-10.99273 112.75809,-15.44773c72.46436,-4.45495 163.28375,-7.19975 272.45819,-8.23441c109.17684,-0.74071 200.02877,0.52688 272.55577,3.80276c72.52698,3.27607 110.19162,7.81344 112.99391,13.6121" id="Path 1"/></g><path d="M564.03234,490.93825l-3.49518,2.81698c-16.62893,5.75324 -65.38201,10.64286 -146.25924,14.66887c-81.43717,4.02782 -177.35611,6.17251 -287.75684,6.43406c-105.36551,-0.03237 -189.64987,-1.94862 -252.85307,-5.74875c-20.25113,-1.22992 -36.93487,-2.61379 -50.05122,-4.1516l-16.53969,-2.40154c-9.08968,-1.67106 -13.69324,-3.45465 -13.8107,-5.35076c2.70773,-5.84349 40.29376,-10.99273 112.75809,-15.44773c72.46436,-4.45495 163.28375,-7.19975 272.45819,-8.23441c109.17684,-0.74071 200.02877,0.52688 272.55577,3.80276c72.52698,3.27607 110.19162,7.81344 112.99391,13.6121" id="Path 1 1" fill="#762430"/><g id="Group 1 1" fill="#762430"><path d="M116.53212,288.73793c-0.85391,0.00656 -1.70752,0.05567 -2.55759,0.14725l-268.75568,28.97534c-7.84865,0.84622 -14.87317,5.25206 -19.05192,11.94968c-4.17875,6.6972 -5.04815,14.94342 -2.35807,22.36523l2.10855,5.81715l-0.00026,0.00006c5.65804,15.79801 15.62893,33.97703 29.91266,54.53705c0.16642,0.23954 0.33704,0.47641 0.51155,0.7101l43.74618,58.60438c0.05491,0.07357 0.11046,0.14716 0.16615,0.2202c5.66541,7.42209 12.05306,13.90452 19.16297,19.4473c0.1424,0.11106 0.28524,0.22003 0.42998,0.32801c10.94767,8.17045 23.73773,13.55773 38.37017,16.16182l-0.00507,0.00014c0.8177,0.20279 1.67259,0.38497 2.56463,0.54656h-0.00004c7.70044,1.39466 32.09872,3.07673 73.19485,5.04622c0.06987,0.00335 0.13727,0.00627 0.20719,0.00906c24.77264,0.98694 49.55682,1.38504 74.35254,1.19432c2.88729,-0.02223 5.76612,-0.05228 8.63647,-0.09016c0.05699,-0.00085 0.12003,-0.00181 0.17698,-0.00301l186.38307,-3.74581l46.5885,-0.33469l0.09273,-0.00083c17.49859,-0.18901 34.71734,-2.27633 51.65624,-6.26198c0.22759,-0.05347 0.45359,-0.10984 0.67961,-0.16964c19.99976,-5.28516 35.71997,-14.71734 47.16061,-28.29655l-0.00998,0.00007c3.64577,-4.05598 7.53575,-9.31514 11.66994,-15.77748c0.13773,-0.21527 0.27268,-0.43314 0.40389,-0.65257l25.76083,-43.04505l-0.0104,0.00006c7.10669,-10.2042 12.27909,-16.81918 15.5172,-19.84496c8.85124,-8.27068 10.7263,-21.59862 4.50071,-31.99042l-18.62102,-31.08241c-4.21333,-7.03259 -11.52827,-11.6337 -19.69181,-12.38565l-350.33702,-32.27124c-0.85001,-0.07832 -1.70284,-0.11407 -2.55534,-0.10754z" id="Path 1"/></g><path d="M116.53212,288.73793c-0.85391,0.00656 -1.70752,0.05567 -2.55759,0.14725l-268.75568,28.97534c-7.84865,0.84622 -14.87317,5.25206 -19.05192,11.94968c-4.17875,6.6972 -5.04815,14.94342 -2.35807,22.36523l2.10855,5.81715l-0.00026,0.00006c5.65804,15.79801 15.62893,33.97703 29.91266,54.53705c0.16642,0.23954 0.33704,0.47641 0.51155,0.7101l43.74618,58.60438c0.05491,0.07357 0.11046,0.14716 0.16615,0.2202c5.66541,7.42209 12.05306,13.90452 19.16297,19.4473c0.1424,0.11106 0.28524,0.22003 0.42998,0.32801c10.94767,8.17045 23.73773,13.55773 38.37017,16.16182l-0.00507,0.00014c0.8177,0.20279 1.67259,0.38497 2.56463,0.54656h-0.00004c7.70044,1.39466 32.09872,3.07673 73.19485,5.04622c0.06987,0.00335 0.13727,0.00627 0.20719,0.00906c24.77264,0.98694 49.55682,1.38504 74.35254,1.19432c2.88729,-0.02223 5.76612,-0.05228 8.63647,-0.09016c0.05699,-0.00085 0.12003,-0.00181 0.17698,-0.00301l186.38307,-3.74581l46.5885,-0.33469l0.09273,-0.00083c17.49859,-0.18901 34.71734,-2.27633 51.65624,-6.26198c0.22759,-0.05347 0.45359,-0.10984 0.67961,-0.16964c19.99976,-5.28516 35.71997,-14.71734 47.16061,-28.29655l-0.00998,0.00007c3.64577,-4.05598 7.53575,-9.31514 11.66994,-15.77748c0.13773,-0.21527 0.27268,-0.43314 0.40389,-0.65257l25.76083,-43.04505l-0.0104,0.00006c7.10669,-10.2042 12.27909,-16.81918 15.5172,-19.84496c8.85124,-8.27068 10.7263,-21.59862 4.50071,-31.99042l-18.62102,-31.08241c-4.21333,-7.03259 -11.52827,-11.6337 -19.69181,-12.38565l-350.33702,-32.27124c-0.85001,-0.07832 -1.70284,-0.11407 -2.55534,-0.10754z" id="Path 1 1" fill="#762430"/><g id="Group 1 1"><g id="Group 1" fill="#f47e50"><path d="M-152.02593,343.4162l2.10858,5.8173c4.88507,13.68051 13.83724,29.89074 26.85649,48.63069l43.74622,58.60438c4.32382,5.6645 9.16872,10.58837 14.53468,14.77161c7.95204,5.93473 17.47962,9.81496 28.58273,11.64071c3.30073,1.23659 27.10034,2.91633 71.39881,5.03921c27.19542,1.08343 54.4042,1.44541 81.62631,1.08593l186.54487,-3.74918l46.75851,-0.33588c15.60365,-0.16839 30.9525,-2.0284 46.04653,-5.58003c14.98172,-3.95904 26.45983,-10.77368 34.43434,-20.44393c2.74735,-3.02277 5.84773,-7.23317 9.30115,-12.6312l26.27543,-43.9052c8.36354,-12.04556 14.86322,-20.23426 19.49903,-24.56611l-18.62113,-31.08255l-350.33693,-32.2711l-268.75563,28.97534" id="Path 1"/></g><g id="Group 1" fill="#ca5639"><path d="M116.7297,314.44086l-268.75563,28.97534l2.10858,5.8173c4.88507,13.68051 13.83724,29.89074 26.85649,48.63069l2.52286,3.37969c14.10691,-7.11654 30.12051,-10.74372 48.04082,-10.88153c4.61417,-0.03545 9.35475,0.16036 14.22172,0.58743c8.9081,0.7462 20.93716,3.73682 36.08719,8.9719c5.2157,1.46675 26.4146,10.71676 63.5967,27.75c6.56081,2.72939 13.2261,5.1801 19.99588,7.35213c17.27806,5.47295 34.96737,8.33907 53.06793,8.59836c0.55672,-0.00014 1.11224,-0.00234 1.66657,-0.00659c17.96019,-0.1381 34.65244,-2.45563 50.07677,-6.95261c9.81642,-2.70613 19.48148,-5.89653 28.99519,-9.57121c36.00126,-15.07753 56.48587,-23.22365 61.45383,-24.43836c11.58562,-3.91355 23.44241,-6.40428 35.57036,-7.47218c2.74929,-0.19855 5.46544,-0.30816 8.14846,-0.32883c9.45321,-0.07271 18.49407,0.95886 27.1226,3.09469c5.63964,1.31492 11.22339,2.88121 16.75125,4.69886c27.03677,9.76786 43.2296,15.30578 48.57849,16.61374c10.83408,3.2295 21.86491,5.40908 33.09249,6.53872c4.6823,0.42363 9.32755,0.61771 13.93577,0.58224c4.13976,-0.03185 8.24963,-0.24897 12.32959,-0.65138l13.99512,-23.36863c8.36354,-12.04556 14.86322,-20.23426 19.49903,-24.56611l-18.62113,-31.08255z" id="Path 1"/></g></g><g id="Group 1 1" fill="#f47e50"><path d="M-152.02593,343.4162l2.10858,5.8173c4.88507,13.68051 13.83724,29.89074 26.85649,48.63069l43.74622,58.60438c4.32382,5.6645 9.16872,10.58837 14.53468,14.77161c7.95204,5.93473 17.47962,9.81496 28.58273,11.64071c3.30073,1.23659 27.10034,2.91633 71.39881,5.03921c27.19542,1.08343 54.4042,1.44541 81.62631,1.08593l186.54487,-3.74918l46.75851,-0.33588c15.60365,-0.16839 30.9525,-2.0284 46.04653,-5.58003c14.98172,-3.95904 26.45983,-10.77368 34.43434,-20.44393c2.74735,-3.02277 5.84773,-7.23317 9.30115,-12.6312l26.27543,-43.9052c8.36354,-12.04556 14.86322,-20.23426 19.49903,-24.56611l-18.62113,-31.08255l-350.33693,-32.2711l-268.75563,28.97534" id="Path 1"/></g><path d="M-152.02593,343.4162l2.10858,5.8173c4.88507,13.68051 13.83724,29.89074 26.85649,48.63069l43.74622,58.60438c4.32382,5.6645 9.16872,10.58837 14.53468,14.77161c7.95204,5.93473 17.47962,9.81496 28.58273,11.64071c3.30073,1.23659 27.10034,2.91633 71.39881,5.03921c27.19542,1.08343 54.4042,1.44541 81.62631,1.08593l186.54487,-3.74918l46.75851,-0.33588c15.60365,-0.16839 30.9525,-2.0284 46.04653,-5.58003c14.98172,-3.95904 26.45983,-10.77368 34.43434,-20.44393c2.74735,-3.02277 5.84773,-7.23317 9.30115,-12.6312l26.27543,-43.9052c8.36354,-12.04556 14.86322,-20.23426 19.49903,-24.56611l-18.62113,-31.08255l-350.33693,-32.2711l-268.75563,28.97534" id="Path 1 1" fill="#f47e50"/><g id="Group 1 1" fill="#ca5639"><path d="M116.7297,314.44086l-268.75563,28.97534l2.10858,5.8173c4.88507,13.68051 13.83724,29.89074 26.85649,48.63069l2.52286,3.37969c14.10691,-7.11654 30.12051,-10.74372 48.04082,-10.88153c4.61417,-0.03545 9.35475,0.16036 14.22172,0.58743c8.9081,0.7462 20.93716,3.73682 36.08719,8.9719c5.2157,1.46675 26.4146,10.71676 63.5967,27.75c6.56081,2.72939 13.2261,5.1801 19.99588,7.35213c17.27806,5.47295 34.96737,8.33907 53.06793,8.59836c0.55672,-0.00014 1.11224,-0.00234 1.66657,-0.00659c17.96019,-0.1381 34.65244,-2.45563 50.07677,-6.95261c9.81642,-2.70613 19.48148,-5.89653 28.99519,-9.57121c36.00126,-15.07753 56.48587,-23.22365 61.45383,-24.43836c11.58562,-3.91355 23.44241,-6.40428 35.57036,-7.47218c2.74929,-0.19855 5.46544,-0.30816 8.14846,-0.32883c9.45321,-0.07271 18.49407,0.95886 27.1226,3.09469c5.63964,1.31492 11.22339,2.88121 16.75125,4.69886c27.03677,9.76786 43.2296,15.30578 48.57849,16.61374c10.83408,3.2295 21.86491,5.40908 33.09249,6.53872c4.6823,0.42363 9.32755,0.61771 13.93577,0.58224c4.13976,-0.03185 8.24963,-0.24897 12.32959,-0.65138l13.99512,-23.36863c8.36354,-12.04556 14.86322,-20.23426 19.49903,-24.56611l-18.62113,-31.08255z" id="Path 1"/></g><path d="M116.7297,314.44086l-268.75563,28.97534l2.10858,5.8173c4.88507,13.68051 13.83724,29.89074 26.85649,48.63069l2.52286,3.37969c14.10691,-7.11654 30.12051,-10.74372 48.04082,-10.88153c4.61417,-0.03545 9.35475,0.16036 14.22172,0.58743c8.9081,0.7462 20.93716,3.73682 36.08719,8.9719c5.2157,1.46675 26.4146,10.71676 63.5967,27.75c6.56081,2.72939 13.2261,5.1801 19.99588,7.35213c17.27806,5.47295 34.96737,8.33907 53.06793,8.59836c0.55672,-0.00014 1.11224,-0.00234 1.66657,-0.00659c17.96019,-0.1381 34.65244,-2.45563 50.07677,-6.95261c9.81642,-2.70613 19.48148,-5.89653 28.99519,-9.57121c36.00126,-15.07753 56.48587,-23.22365 61.45383,-24.43836c11.58562,-3.91355 23.44241,-6.40428 35.57036,-7.47218c2.74929,-0.19855 5.46544,-0.30816 8.14846,-0.32883c9.45321,-0.07271 18.49407,0.95886 27.1226,3.09469c5.63964,1.31492 11.22339,2.88121 16.75125,4.69886c27.03677,9.76786 43.2296,15.30578 48.57849,16.61374c10.83408,3.2295 21.86491,5.40908 33.09249,6.53872c4.6823,0.42363 9.32755,0.61771 13.93577,0.58224c4.13976,-0.03185 8.24963,-0.24897 12.32959,-0.65138l13.99512,-23.36863c8.36354,-12.04556 14.86322,-20.23426 19.49903,-24.56611l-18.62113,-31.08255z" id="Path 1 1" fill="#ca5639"/><g id="Group 1 1" fill="#ca5639"><path d="M247.2625,543.19974l-0.0001,0.00035l-0.00017,0.00034l0.00027,-0.00069" id="Path 1"/></g><path d="M247.2625,543.19974l-0.0001,0.00035l-0.00017,0.00034l0.00027,-0.00069" id="Path 1 1" fill="#ca5639"/><g id="Group 1 1" fill="#762430"><path d="M-198.07304,307.20342l6.53985,-12.70012c40.12845,-53.35613 94.8107,-97.92349 164.04673,-133.70209l13.90302,-6.56507l31.45299,7.67718l73.56567,-49.32872l68.10777,30.12479c29.55678,-23.5324 61.9037,-46.83567 97.04077,-69.90982c71.8567,29.98257 130.5844,63.88173 176.18311,101.69749c57.09304,47.43913 100.26302,92.46669 129.50995,135.08268l-122.63204,41.79574l-140.92408,-38.41454l-197.74568,36.64443l-197.84531,-36.17933l-101.20276,-6.22261" id="Path 1"/></g><path d="M-198.07304,307.20342l6.53985,-12.70012c40.12845,-53.35613 94.8107,-97.92349 164.04673,-133.70209l13.90302,-6.56507l31.45299,7.67718l73.56567,-49.32872l68.10777,30.12479c29.55678,-23.5324 61.9037,-46.83567 97.04077,-69.90982c71.8567,29.98257 130.5844,63.88173 176.18311,101.69749c57.09304,47.43913 100.26302,92.46669 129.50995,135.08268l-122.63204,41.79574l-140.92408,-38.41454l-197.74568,36.64443l-197.84531,-36.17933l-101.20276,-6.22261" id="Path 1 1" fill="#762430"/><g id="Group 1 1" fill="#f1bd74"><path d="M58.29712,192.4758l-26.46498,-16.04729c5.60742,-2.04467 10.41962,-4.38729 14.43661,-7.02784l6.30412,-4.26476l21.03248,-15.39193l7.78443,-5.0633c4.93215,-3.04696 9.63974,-4.86302 14.12276,-5.44819c5.5233,-0.74068 12.39811,0.67961 20.62442,4.26089c6.18048,2.3826 18.65869,8.98618 37.43461,19.81073c-9.15683,9.12121 -26.50606,29.53733 -52.04767,61.24839l-43.22677,-32.07669" id="Path 1"/></g><path d="M58.29712,192.4758l-26.46498,-16.04729c5.60742,-2.04467 10.41962,-4.38729 14.43661,-7.02784l6.30412,-4.26476l21.03248,-15.39193l7.78443,-5.0633c4.93215,-3.04696 9.63974,-4.86302 14.12276,-5.44819c5.5233,-0.74068 12.39811,0.67961 20.62442,4.26089c6.18048,2.3826 18.65869,8.98618 37.43461,19.81073c-9.15683,9.12121 -26.50606,29.53733 -52.04767,61.24839l-43.22677,-32.07669" id="Path 1 1" fill="#f1bd74"/><g id="Group 1 1" fill="#762430"><path d="M311.7223,263.07038c-1.90191,0.01461 -3.80547,0.06039 -5.71067,0.13734c-0.28177,0.0114 -0.56283,0.02721 -0.84416,0.04777c-12.97251,0.94518 -26.83516,3.60857 -41.58794,7.99014l-0.00341,0.00091c-6.68867,1.98677 -13.32639,4.18488 -19.91316,6.59432c-0.22907,0.08379 -0.45739,0.17089 -0.68394,0.26103c-35.87672,14.27554 -56.11731,22.14227 -60.72175,23.60018l-0.00733,0.00003c-0.34526,0.09367 -0.68857,0.19424 -1.02978,0.3018c-14.99009,4.73036 -24.0624,7.3894 -27.21693,7.97714l-0.00708,-0.00006c-0.68791,0.10679 -1.37113,0.24101 -2.04845,0.40226c-15.99134,3.80883 -32.05511,5.77527 -48.19132,5.89933c-3.11136,0.02402 -6.22659,-0.0204 -9.34569,-0.13326c-0.12691,-0.00466 -0.25667,-0.00835 -0.3836,-0.01106c-10.74492,-0.23085 -23.67548,-2.56126 -38.79168,-6.99123l-0.00263,0.00006c-13.38641,-4.03678 -35.95897,-12.20679 -67.71767,-24.51003c-0.17075,-0.06613 -0.34294,-0.13083 -0.51502,-0.19333c-9.94001,-3.61194 -19.91965,-6.78477 -29.93893,-9.51849h-0.00008c-10.569,-2.88376 -21.21356,-4.96641 -31.93369,-6.24798c-0.45898,-0.05482 -0.91874,-0.09758 -1.37995,-0.12799l-14.22766,-0.93938c-0.63986,-0.04224 -1.28094,-0.0609 -1.92199,-0.05596c-0.27789,0.00211 -0.55574,0.00869 -0.83353,0.01968l-14.35311,0.56853c-0.54331,0.02155 -1.08581,0.05991 -1.6267,0.11529c-17.10646,1.75122 -33.77069,5.68896 -49.99269,11.81319l-0.08708,0.0331c-21.25871,8.1123 -36.75952,16.8023 -46.50245,26.07c-0.53498,0.50895 -1.04839,1.04063 -1.53849,1.59313c-1.89011,2.13078 -3.56574,4.3043 -5.02686,6.52058c-8.23524,12.49096 -9.81009,25.15115 -4.72456,37.98056l-0.00332,0.00005c2.46415,7.44611 5.51367,13.72473 9.14854,18.83584h-0.00004c7.21582,10.14658 16.42119,15.95354 27.6161,17.42087c1.19238,0.15636 2.39389,0.23004 3.5961,0.22082c0.11229,-0.00084 0.22464,-0.00239 0.33693,-0.0047c5.95514,-0.12268 11.78187,-1.35014 17.48021,-3.68238c1.60328,-0.65617 3.18851,-1.398 4.75569,-2.22551c0.63806,-0.33701 1.26192,-0.70023 1.86993,-1.08882c8.75473,-5.59508 14.45051,-9.01981 17.08734,-10.27421l-0.00417,0.00002c0.20097,-0.06901 0.40096,-0.14056 0.6002,-0.2145c15.88847,-5.90096 27.21398,-9.81254 33.97652,-11.73472c0.24866,-0.07075 0.49731,-0.14534 0.74374,-0.22334c11.14751,-3.53003 22.32364,-5.33811 33.52841,-5.42423c0.58721,-0.00455 1.17439,-0.0044 1.76156,0.00046l-0.00486,0.00008l5.47737,0.43927l13.31923,2.16356l13.85231,3.2311l-0.00516,-0.00001c14.30566,3.83211 38.12502,11.83516 71.45808,24.00918c0.16718,0.061 0.33563,0.12057 0.50407,0.17832c10.52064,3.60003 21.10326,6.75081 31.74785,9.45232h-0.00004c11.19291,2.84057 22.50198,4.84891 33.92721,6.02501c0.45232,0.04649 0.90583,0.08121 1.36,0.10415l15.34792,0.77363c0.50509,0.02548 1.01051,0.03631 1.51601,0.03242c0.4062,-0.00311 0.81233,-0.01578 1.21812,-0.03782l11.71176,-0.63694c0.88601,-0.04821 1.76902,-0.14152 2.64552,-0.27956l11.5138,-1.81303c0.4401,-0.06925 0.8782,-0.14992 1.31406,-0.24156c8.77522,-1.84603 17.4419,-4.30117 26.00004,-7.36544l0.03014,-0.01082c11.62379,-4.17816 30.40387,-12.05879 56.34024,-23.64191l-0.00793,0.00006l20.84627,-7.66137l-0.00809,-0.00001c6.48041,-1.92159 10.73922,-3.01213 12.77642,-3.2716l-0.00828,-0.00002c0.38544,-0.03419 0.77035,-0.07713 1.15387,-0.12841c2.6311,-0.35235 5.27786,-0.53878 7.94026,-0.55928c0.81502,-0.00624 1.63213,0.00304 2.45134,0.02781c0.32958,0.00997 0.65967,0.01367 0.98953,0.01108c0.22873,-0.00178 0.45757,-0.00642 0.68616,-0.01421c0.07322,-0.00252 0.15643,-0.00412 0.24962,-0.00483c5.16361,-0.0397 14.79059,1.74163 28.88094,5.34397l-0.00871,0.0001l94.25997,28.33829c0.32763,0.0985 0.65713,0.19063 0.98844,0.27617l14.71966,3.80175c0.22023,0.05683 0.44111,0.11081 0.66269,0.16188c7.472,1.72316 15.56414,2.88015 24.27642,3.47098l-0.01006,0.00007c0.67112,0.07332 1.37301,0.13215 2.10566,0.17648l-0.00007,0.00007c1.67072,0.10123 3.78464,0.14201 6.34175,0.12233c3.25849,-0.02513 7.52805,-0.14687 12.8087,-0.36521c0.30309,-0.01262 0.60619,-0.0304 0.90874,-0.05344c13.15489,-1.004 26.17518,-3.04372 39.06088,-6.11914l-0.00819,0.00012c19.92228,-4.52091 34.27144,-9.12178 43.04747,-13.80261c0.18686,-0.09956 0.37238,-0.20153 0.55678,-0.30563c7.88176,-4.4532 14.21009,-9.59995 18.98498,-15.44026v-0.00007c9.25641,-11.32202 12.49312,-24.01569 9.71012,-38.081c-0.44264,-2.23767 -1.17643,-4.40766 -2.18261,-6.45486c-5.17888,-10.53544 -14.44955,-16.72544 -27.81201,-18.57c-1.441,-0.19889 -2.93587,-0.34376 -4.48463,-0.43461c-0.57606,-0.03381 -1.15287,-0.04855 -1.72993,-0.04411c-0.03728,0.00022 -0.07443,0.00064 -0.11178,0.00104c-2.97147,0.03549 -5.97303,0.30877 -9.0047,0.81984c-0.5258,0.08863 -1.04849,0.19333 -1.56779,0.31387c-7.29019,1.69303 -12.02944,2.67323 -14.21775,2.94058l-0.01075,0.00012c-0.65237,0.01885 -1.30409,0.06219 -1.95356,0.12995c-7.33141,0.76449 -14.69048,1.17513 -22.0772,1.23189c-0.24068,0.00187 -0.47033,0.00334 -0.68896,0.00439c-0.02562,0.00014 -0.05121,0.00036 -0.0768,0.00048c-0.22465,0.00176 -0.44905,0.00631 -0.67387,0.01385c-1.18151,0.03961 -2.38186,0.06409 -3.60106,0.07344c-12.23004,0.09414 -26.17683,-1.32477 -41.84037,-4.25675c-0.11173,-0.02094 -0.22205,-0.04082 -0.33398,-0.06038l-1.13902,-0.19788l-0.01005,0.00006c-3.85968,-0.80348 -8.78606,-2.18824 -14.77914,-4.15428l-0.00992,0.00017c-36.86633,-13.76064 -60.3525,-21.77116 -70.45852,-24.03159l-0.00912,0.00008c-16.0906,-4.41487 -32.27033,-6.55975 -48.53919,-6.43467z" id="Path 1"/></g><path d="M311.7223,263.07038c-1.90191,0.01461 -3.80547,0.06039 -5.71067,0.13734c-0.28177,0.0114 -0.56283,0.02721 -0.84416,0.04777c-12.97251,0.94518 -26.83516,3.60857 -41.58794,7.99014l-0.00341,0.00091c-6.68867,1.98677 -13.32639,4.18488 -19.91316,6.59432c-0.22907,0.08379 -0.45739,0.17089 -0.68394,0.26103c-35.87672,14.27554 -56.11731,22.14227 -60.72175,23.60018l-0.00733,0.00003c-0.34526,0.09367 -0.68857,0.19424 -1.02978,0.3018c-14.99009,4.73036 -24.0624,7.3894 -27.21693,7.97714l-0.00708,-0.00006c-0.68791,0.10679 -1.37113,0.24101 -2.04845,0.40226c-15.99134,3.80883 -32.05511,5.77527 -48.19132,5.89933c-3.11136,0.02402 -6.22659,-0.0204 -9.34569,-0.13326c-0.12691,-0.00466 -0.25667,-0.00835 -0.3836,-0.01106c-10.74492,-0.23085 -23.67548,-2.56126 -38.79168,-6.99123l-0.00263,0.00006c-13.38641,-4.03678 -35.95897,-12.20679 -67.71767,-24.51003c-0.17075,-0.06613 -0.34294,-0.13083 -0.51502,-0.19333c-9.94001,-3.61194 -19.91965,-6.78477 -29.93893,-9.51849h-0.00008c-10.569,-2.88376 -21.21356,-4.96641 -31.93369,-6.24798c-0.45898,-0.05482 -0.91874,-0.09758 -1.37995,-0.12799l-14.22766,-0.93938c-0.63986,-0.04224 -1.28094,-0.0609 -1.92199,-0.05596c-0.27789,0.00211 -0.55574,0.00869 -0.83353,0.01968l-14.35311,0.56853c-0.54331,0.02155 -1.08581,0.05991 -1.6267,0.11529c-17.10646,1.75122 -33.77069,5.68896 -49.99269,11.81319l-0.08708,0.0331c-21.25871,8.1123 -36.75952,16.8023 -46.50245,26.07c-0.53498,0.50895 -1.04839,1.04063 -1.53849,1.59313c-1.89011,2.13078 -3.56574,4.3043 -5.02686,6.52058c-8.23524,12.49096 -9.81009,25.15115 -4.72456,37.98056l-0.00332,0.00005c2.46415,7.44611 5.51367,13.72473 9.14854,18.83584h-0.00004c7.21582,10.14658 16.42119,15.95354 27.6161,17.42087c1.19238,0.15636 2.39389,0.23004 3.5961,0.22082c0.11229,-0.00084 0.22464,-0.00239 0.33693,-0.0047c5.95514,-0.12268 11.78187,-1.35014 17.48021,-3.68238c1.60328,-0.65617 3.18851,-1.398 4.75569,-2.22551c0.63806,-0.33701 1.26192,-0.70023 1.86993,-1.08882c8.75473,-5.59508 14.45051,-9.01981 17.08734,-10.27421l-0.00417,0.00002c0.20097,-0.06901 0.40096,-0.14056 0.6002,-0.2145c15.88847,-5.90096 27.21398,-9.81254 33.97652,-11.73472c0.24866,-0.07075 0.49731,-0.14534 0.74374,-0.22334c11.14751,-3.53003 22.32364,-5.33811 33.52841,-5.42423c0.58721,-0.00455 1.17439,-0.0044 1.76156,0.00046l-0.00486,0.00008l5.47737,0.43927l13.31923,2.16356l13.85231,3.2311l-0.00516,-0.00001c14.30566,3.83211 38.12502,11.83516 71.45808,24.00918c0.16718,0.061 0.33563,0.12057 0.50407,0.17832c10.52064,3.60003 21.10326,6.75081 31.74785,9.45232h-0.00004c11.19291,2.84057 22.50198,4.84891 33.92721,6.02501c0.45232,0.04649 0.90583,0.08121 1.36,0.10415l15.34792,0.77363c0.50509,0.02548 1.01051,0.03631 1.51601,0.03242c0.4062,-0.00311 0.81233,-0.01578 1.21812,-0.03782l11.71176,-0.63694c0.88601,-0.04821 1.76902,-0.14152 2.64552,-0.27956l11.5138,-1.81303c0.4401,-0.06925 0.8782,-0.14992 1.31406,-0.24156c8.77522,-1.84603 17.4419,-4.30117 26.00004,-7.36544l0.03014,-0.01082c11.62379,-4.17816 30.40387,-12.05879 56.34024,-23.64191l-0.00793,0.00006l20.84627,-7.66137l-0.00809,-0.00001c6.48041,-1.92159 10.73922,-3.01213 12.77642,-3.2716l-0.00828,-0.00002c0.38544,-0.03419 0.77035,-0.07713 1.15387,-0.12841c2.6311,-0.35235 5.27786,-0.53878 7.94026,-0.55928c0.81502,-0.00624 1.63213,0.00304 2.45134,0.02781c0.32958,0.00997 0.65967,0.01367 0.98953,0.01108c0.22873,-0.00178 0.45757,-0.00642 0.68616,-0.01421c0.07322,-0.00252 0.15643,-0.00412 0.24962,-0.00483c5.16361,-0.0397 14.79059,1.74163 28.88094,5.34397l-0.00871,0.0001l94.25997,28.33829c0.32763,0.0985 0.65713,0.19063 0.98844,0.27617l14.71966,3.80175c0.22023,0.05683 0.44111,0.11081 0.66269,0.16188c7.472,1.72316 15.56414,2.88015 24.27642,3.47098l-0.01006,0.00007c0.67112,0.07332 1.37301,0.13215 2.10566,0.17648l-0.00007,0.00007c1.67072,0.10123 3.78464,0.14201 6.34175,0.12233c3.25849,-0.02513 7.52805,-0.14687 12.8087,-0.36521c0.30309,-0.01262 0.60619,-0.0304 0.90874,-0.05344c13.15489,-1.004 26.17518,-3.04372 39.06088,-6.11914l-0.00819,0.00012c19.92228,-4.52091 34.27144,-9.12178 43.04747,-13.80261c0.18686,-0.09956 0.37238,-0.20153 0.55678,-0.30563c7.88176,-4.4532 14.21009,-9.59995 18.98498,-15.44026v-0.00007c9.25641,-11.32202 12.49312,-24.01569 9.71012,-38.081c-0.44264,-2.23767 -1.17643,-4.40766 -2.18261,-6.45486c-5.17888,-10.53544 -14.44955,-16.72544 -27.81201,-18.57c-1.441,-0.19889 -2.93587,-0.34376 -4.48463,-0.43461c-0.57606,-0.03381 -1.15287,-0.04855 -1.72993,-0.04411c-0.03728,0.00022 -0.07443,0.00064 -0.11178,0.00104c-2.97147,0.03549 -5.97303,0.30877 -9.0047,0.81984c-0.5258,0.08863 -1.04849,0.19333 -1.56779,0.31387c-7.29019,1.69303 -12.02944,2.67323 -14.21775,2.94058l-0.01075,0.00012c-0.65237,0.01885 -1.30409,0.06219 -1.95356,0.12995c-7.33141,0.76449 -14.69048,1.17513 -22.0772,1.23189c-0.24068,0.00187 -0.47033,0.00334 -0.68896,0.00439c-0.02562,0.00014 -0.05121,0.00036 -0.0768,0.00048c-0.22465,0.00176 -0.44905,0.00631 -0.67387,0.01385c-1.18151,0.03961 -2.38186,0.06409 -3.60106,0.07344c-12.23004,0.09414 -26.17683,-1.32477 -41.84037,-4.25675c-0.11173,-0.02094 -0.22205,-0.04082 -0.33398,-0.06038l-1.13902,-0.19788l-0.01005,0.00006c-3.85968,-0.80348 -8.78606,-2.18824 -14.77914,-4.15428l-0.00992,0.00017c-36.86633,-13.76064 -60.3525,-21.77116 -70.45852,-24.03159l-0.00912,0.00008c-16.0906,-4.41487 -32.27033,-6.55975 -48.53919,-6.43467z" id="Path 1 1" fill="#762430"/><g id="Group 1 1" fill="#f47e50"><path d="M440.5922,323.35149l1.60203,0.27836c19.11519,3.57799 36.15634,5.11622 51.12345,4.61468c8.48204,-0.04002 16.93249,-0.49899 25.35137,-1.3769c2.3884,0.0416 8.84931,-1.16075 19.38273,-3.60706c1.69741,-0.28609 3.35549,-0.43881 4.97425,-0.45816c5.62359,0.32971 9.08323,1.81251 10.37894,4.44842c1.98244,10.01973 -3.32331,18.58735 -15.91725,25.70286c-6.71344,3.58072 -18.89141,7.37286 -36.53393,11.37642c-11.63361,2.79198 -23.38658,4.64098 -35.25891,5.547c-9.86216,0.40775 -15.7722,0.45695 -17.73013,0.14759c-7.58814,-0.48322 -14.53541,-1.45198 -20.84182,-2.90628l-14.71973,-3.80183l-94.82852,-28.50935c-17.23762,-4.42447 -29.55788,-6.51098 -36.96081,-6.25951c-4.91799,-0.14885 -9.80118,0.10137 -14.64958,0.75065c-3.42259,0.29437 -9.64019,1.78651 -18.65283,4.47641l-22.44357,8.24851c-25.77814,11.52331 -44.23346,19.28574 -55.36598,23.28728c-7.4374,2.66296 -14.96101,4.79485 -22.57083,6.39569l-11.5138,1.81317l-11.71187,0.63694l-15.34801,-0.77371c-10.15863,-1.04563 -20.21716,-2.83208 -30.17563,-5.35939c-9.95849,-2.52734 -19.86372,-5.47667 -29.71569,-8.84796c-34.39453,-12.56166 -59.10218,-20.83773 -74.12295,-24.8282l-15.07711,-3.51681l-15.2433,-2.47605l-7.41987,-0.595c-14.89535,-0.23085 -29.6867,1.97914 -44.37405,6.62996c-7.42174,2.10956 -19.39815,6.23418 -35.92925,12.37385c-2.80438,0.78323 -10.35664,5.1053 -22.65678,12.96619c-3.51113,1.85395 -7.03568,2.81735 -10.57364,2.89019c-6.57981,-0.8625 -11.7892,-7.32867 -15.62817,-19.39852c-2.46297,-5.71734 -0.8735,-11.75616 4.76842,-18.11647c7.21186,-6.86016 19.81527,-13.72371 37.81023,-20.59064c14.10016,-5.32311 28.57536,-8.74478 43.42559,-10.26502l14.35314,-0.56856l14.22758,0.93937c9.44327,1.12894 18.82924,2.96605 28.15792,5.51132c9.32868,2.54532 18.62641,5.50164 27.89317,8.86897c32.38161,12.54455 55.58582,20.93175 69.61261,25.16158c17.41523,5.11715 32.67401,7.8164 45.77633,8.09776c21.65282,0.78344 43.16456,-1.36989 64.53521,-6.45999c3.67079,-0.53902 14.03134,-3.4988 31.08168,-8.87933c3.11921,-0.74313 24.30441,-8.9238 63.55561,-24.54202c6.08092,-2.22443 12.20741,-4.25326 18.37948,-6.08649c12.94289,-3.84397 24.95891,-6.16997 36.04806,-6.97798c15.70374,-0.6344 31.34912,1.2217 46.9361,5.5683c8.01934,1.59012 30.68383,9.35099 67.99348,23.2826c7.37068,2.43504 13.56957,4.16409 18.59665,5.18716" id="Path 1"/></g><path d="M440.5922,323.35149l1.60203,0.27836c19.11519,3.57799 36.15634,5.11622 51.12345,4.61468c8.48204,-0.04002 16.93249,-0.49899 25.35137,-1.3769c2.3884,0.0416 8.84931,-1.16075 19.38273,-3.60706c1.69741,-0.28609 3.35549,-0.43881 4.97425,-0.45816c5.62359,0.32971 9.08323,1.81251 10.37894,4.44842c1.98244,10.01973 -3.32331,18.58735 -15.91725,25.70286c-6.71344,3.58072 -18.89141,7.37286 -36.53393,11.37642c-11.63361,2.79198 -23.38658,4.64098 -35.25891,5.547c-9.86216,0.40775 -15.7722,0.45695 -17.73013,0.14759c-7.58814,-0.48322 -14.53541,-1.45198 -20.84182,-2.90628l-14.71973,-3.80183l-94.82852,-28.50935c-17.23762,-4.42447 -29.55788,-6.51098 -36.96081,-6.25951c-4.91799,-0.14885 -9.80118,0.10137 -14.64958,0.75065c-3.42259,0.29437 -9.64019,1.78651 -18.65283,4.47641l-22.44357,8.24851c-25.77814,11.52331 -44.23346,19.28574 -55.36598,23.28728c-7.4374,2.66296 -14.96101,4.79485 -22.57083,6.39569l-11.5138,1.81317l-11.71187,0.63694l-15.34801,-0.77371c-10.15863,-1.04563 -20.21716,-2.83208 -30.17563,-5.35939c-9.95849,-2.52734 -19.86372,-5.47667 -29.71569,-8.84796c-34.39453,-12.56166 -59.10218,-20.83773 -74.12295,-24.8282l-15.07711,-3.51681l-15.2433,-2.47605l-7.41987,-0.595c-14.89535,-0.23085 -29.6867,1.97914 -44.37405,6.62996c-7.42174,2.10956 -19.39815,6.23418 -35.92925,12.37385c-2.80438,0.78323 -10.35664,5.1053 -22.65678,12.96619c-3.51113,1.85395 -7.03568,2.81735 -10.57364,2.89019c-6.57981,-0.8625 -11.7892,-7.32867 -15.62817,-19.39852c-2.46297,-5.71734 -0.8735,-11.75616 4.76842,-18.11647c7.21186,-6.86016 19.81527,-13.72371 37.81023,-20.59064c14.10016,-5.32311 28.57536,-8.74478 43.42559,-10.26502l14.35314,-0.56856l14.22758,0.93937c9.44327,1.12894 18.82924,2.96605 28.15792,5.51132c9.32868,2.54532 18.62641,5.50164 27.89317,8.86897c32.38161,12.54455 55.58582,20.93175 69.61261,25.16158c17.41523,5.11715 32.67401,7.8164 45.77633,8.09776c21.65282,0.78344 43.16456,-1.36989 64.53521,-6.45999c3.67079,-0.53902 14.03134,-3.4988 31.08168,-8.87933c3.11921,-0.74313 24.30441,-8.9238 63.55561,-24.54202c6.08092,-2.22443 12.20741,-4.25326 18.37948,-6.08649c12.94289,-3.84397 24.95891,-6.16997 36.04806,-6.97798c15.70374,-0.6344 31.34912,1.2217 46.9361,5.5683c8.01934,1.59012 30.68383,9.35099 67.99348,23.2826c7.37068,2.43504 13.56957,4.16409 18.59665,5.18716" id="Path 1 1" fill="#f47e50"/><g id="Group 1 1" fill="#fedba3"><path d="M-145.88006,271.50563l4.80117,-4.90259c35.46295,-35.78044 77.09519,-64.47754 124.89673,-86.09129c-16.34768,19.56342 -25.06777,40.39514 -26.16029,62.49517c12.69379,-20.73569 28.14643,-41.177 46.35794,-61.32391c19.58613,5.4974 37.38078,15.59328 53.38396,30.28763c-18.59626,12.74665 -30.55188,31.82145 -35.86684,57.22442c13.77365,-17.32151 30.16381,-33.82912 49.17047,-49.52282c13.05674,9.30848 23.89067,20.34831 32.50182,33.1195c14.83472,-21.49624 30.16515,-41.60775 45.9913,-60.33454c28.34561,14.19072 52.32763,31.27403 71.94608,51.24992c-11.80092,-25.84088 -32.24966,-47.05923 -61.34622,-63.65505c20.78583,-23.1406 41.99577,-43.11402 63.62981,-59.92029c33.14973,22.78813 58.60191,48.76042 76.35655,77.91686c-7.64322,-33.36931 -26.32941,-62.91357 -56.05858,-88.63281c9.87961,-8.7858 18.54588,-12.75847 25.99879,-11.918c2.7781,0.20317 4.90417,0.56004 6.37821,1.07061c29.61923,16.6375 45.57493,25.79447 47.86708,27.47089c15.05632,9.63994 25.82772,18.43327 32.31423,26.37999c19.04546,21.90099 33.91773,53.29596 44.61681,94.18491c1.71794,-9.29706 1.47469,-21.21589 -0.72976,-35.75648c-3.06584,-15.21059 -8.21518,-28.31667 -15.44803,-39.31825l1.7664,-6.23994c69.21177,50.33491 116.70364,96.65304 142.47562,138.9544c-21.49932,5.71361 -41.65878,6.79395 -60.47836,3.24101c-7.3596,-1.03896 -17.59453,-3.62285 -30.7048,-7.75168c-44.96216,-17.36321 -70.86571,-26.53007 -77.71065,-27.50058c-17.64597,-4.44239 -35.50435,-6.24481 -53.57513,-5.40727c-11.99194,0.59241 -23.74598,2.562 -35.26212,5.90876l-105.75511,39.13368l-8.8457,2.52456c-17.94279,4.46133 -36.17725,6.09173 -54.70336,4.89123c-20.62935,-1.87747 -36.56166,-4.78421 -47.79693,-8.72023c-6.67029,-1.41601 -32.70192,-11.387 -78.09492,-29.91294c-13.61159,-4.98354 -25.90914,-8.56228 -36.89265,-10.7362c-28.55283,-5.98714 -56.894,-5.4567 -85.02349,1.59132" id="Path 1"/></g><path d="M-145.88006,271.50563l4.80117,-4.90259c35.46295,-35.78044 77.09519,-64.47754 124.89673,-86.09129c-16.34768,19.56342 -25.06777,40.39514 -26.16029,62.49517c12.69379,-20.73569 28.14643,-41.177 46.35794,-61.32391c19.58613,5.4974 37.38078,15.59328 53.38396,30.28763c-18.59626,12.74665 -30.55188,31.82145 -35.86684,57.22442c13.77365,-17.32151 30.16381,-33.82912 49.17047,-49.52282c13.05674,9.30848 23.89067,20.34831 32.50182,33.1195c14.83472,-21.49624 30.16515,-41.60775 45.9913,-60.33454c28.34561,14.19072 52.32763,31.27403 71.94608,51.24992c-11.80092,-25.84088 -32.24966,-47.05923 -61.34622,-63.65505c20.78583,-23.1406 41.99577,-43.11402 63.62981,-59.92029c33.14973,22.78813 58.60191,48.76042 76.35655,77.91686c-7.64322,-33.36931 -26.32941,-62.91357 -56.05858,-88.63281c9.87961,-8.7858 18.54588,-12.75847 25.99879,-11.918c2.7781,0.20317 4.90417,0.56004 6.37821,1.07061c29.61923,16.6375 45.57493,25.79447 47.86708,27.47089c15.05632,9.63994 25.82772,18.43327 32.31423,26.37999c19.04546,21.90099 33.91773,53.29596 44.61681,94.18491c1.71794,-9.29706 1.47469,-21.21589 -0.72976,-35.75648c-3.06584,-15.21059 -8.21518,-28.31667 -15.44803,-39.31825l1.7664,-6.23994c69.21177,50.33491 116.70364,96.65304 142.47562,138.9544c-21.49932,5.71361 -41.65878,6.79395 -60.47836,3.24101c-7.3596,-1.03896 -17.59453,-3.62285 -30.7048,-7.75168c-44.96216,-17.36321 -70.86571,-26.53007 -77.71065,-27.50058c-17.64597,-4.44239 -35.50435,-6.24481 -53.57513,-5.40727c-11.99194,0.59241 -23.74598,2.562 -35.26212,5.90876l-105.75511,39.13368l-8.8457,2.52456c-17.94279,4.46133 -36.17725,6.09173 -54.70336,4.89123c-20.62935,-1.87747 -36.56166,-4.78421 -47.79693,-8.72023c-6.67029,-1.41601 -32.70192,-11.387 -78.09492,-29.91294c-13.61159,-4.98354 -25.90914,-8.56228 -36.89265,-10.7362c-28.55283,-5.98714 -56.894,-5.4567 -85.02349,1.59132" id="Path 1 1" fill="#fedba3"/></g></g></g></g></g></g></svg>